<?xml version="1.0" encoding="UTF-8"?>
<!DOCTYPE svg PUBLIC "-//W3C//DTD SVG 1.1//EN" "http://www.w3.org/Graphics/SVG/1.1/DTD/svg11.dtd">
<!-- Creator: CorelDRAW X8 -->
<svg xmlns="http://www.w3.org/2000/svg" xml:space="preserve" width="0.853331in" height="0.853331in" version="1.1" style="shape-rendering:geometricPrecision; text-rendering:geometricPrecision; image-rendering:optimizeQuality; fill-rule:evenodd; clip-rule:evenodd"
viewBox="0 0 853 853"
 xmlns:xlink="http://www.w3.org/1999/xlink">
 <defs>
  <style type="text/css">
   <![CDATA[
    .str0 {stroke:black;stroke-width:3}
    .fil7 {fill:#010100}
    .fil4 {fill:#020202}
    .fil0 {fill:#024CA1}
    .fil2 {fill:#09090A}
    .fil5 {fill:#0D0D0E}
    .fil1 {fill:#87D6FE}
    .fil8 {fill:#CDCDCD}
    .fil9 {fill:#FEFE00}
    .fil3 {fill:#FEFEFE}
    .fil6 {fill:#FFCA02}
   ]]>
  </style>
 </defs>
 <g id="Layer_x0020_1">
  <metadata id="CorelCorpID_0Corel-Layer"/>
  <g id="_2370724996512">
   <path class="fil0" d="M463 534c-9,5 -24,7 -35,11 -15,6 -20,12 -32,6 -17,-8 -39,-32 -40,-56 -24,-34 39,-139 113,-104 24,11 45,39 47,76 2,43 -16,64 -53,67zm-128 8c1,2 -9,75 -9,93 0,34 6,66 17,92 17,43 49,72 86,91 15,7 12,1 12,10 64,-8 146,-49 188,-82 93,-76 127,-165 108,-299 -11,-78 -26,-89 2,-112 23,-18 54,-42 72,-64 13,-16 48,-68 28,-104 -22,-14 -65,1 -85,13 -28,17 -33,37 -44,56 -3,6 -2,4 -5,8 -17,-85 -101,-91 -115,-77 -11,12 -10,79 13,113 29,43 56,41 77,55 -202,58 -363,-95 -515,-56 -17,4 -30,8 -44,18 -48,33 -73,194 -70,261 23,11 34,25 68,32 113,23 196,-56 218,-57l-2 9z"/>
   <path class="fil1" d="M441 828c0,-9 3,-3 -12,-10 -37,-19 -69,-48 -86,-91 -11,-26 -17,-58 -17,-92 0,-18 10,-91 9,-93 -17,8 -37,25 -61,36 -22,11 -45,19 -71,24 -28,6 -59,6 -86,-1 -46,-12 -44,-23 -65,-33 5,108 61,181 124,216 63,35 186,66 265,44z"/>
   <path class="fil2" d="M441 828c-79,22 -202,-9 -265,-44 -63,-35 -119,-108 -124,-216 21,10 19,21 65,33 27,7 58,7 86,1 26,-5 49,-13 71,-24 24,-11 44,-28 61,-36l2 -9c-22,1 -105,80 -218,57 -34,-7 -45,-21 -68,-32 -3,-67 22,-228 70,-261 14,-10 27,-14 44,-18 152,-39 313,114 515,56 -21,-14 -48,-12 -77,-55 -23,-34 -24,-101 -13,-113 14,-14 98,-8 115,77 3,-4 2,-2 5,-8 11,-19 16,-39 44,-56 20,-12 63,-27 85,-13 20,36 -15,88 -28,104 -18,22 -49,46 -72,64 -28,23 -13,34 -2,112 19,134 -15,223 -108,299 -42,33 -124,74 -188,82zm292 -470c11,-11 34,-24 46,-34 60,-47 84,-82 71,-169 -28,-11 -67,-5 -93,10 -30,18 -33,35 -50,66 -6,-43 -21,-62 -53,-75 -96,-40 -99,77 -64,132 22,35 36,30 74,47 -90,12 -199,-16 -268,-38 -83,-28 -173,-54 -254,-18 -98,41 -167,327 -34,474 47,53 134,88 216,97 126,15 254,-28 346,-117 63,-61 92,-136 89,-236 -2,-79 -14,-89 -26,-139z"/>
   <path class="fil3" d="M366 456c40,-30 67,22 62,59 -2,11 -6,15 -10,23 -4,7 -1,-1 -5,10l50 -14c14,-7 18,-3 28,-19 21,-35 12,-79 -17,-104 -39,-33 -107,4 -108,45z"/>
   <path class="fil4" d="M366 456c1,11 1,9 -4,22 -4,10 -2,4 -6,17 1,24 23,48 40,56 12,6 17,0 32,-6 11,-4 26,-6 35,-11l-50 14c4,-11 1,-3 5,-10 4,-8 8,-12 10,-23 5,-37 -22,-89 -62,-59z"/>
   <path class="fil5" d="M356 495c4,-13 2,-7 6,-17 5,-13 5,-11 4,-22 1,-41 69,-78 108,-45 29,25 38,69 17,104 -10,16 -14,12 -28,19 37,-3 55,-24 53,-67 -2,-37 -23,-65 -47,-76 -74,-35 -137,70 -113,104z"/>
   <g>
    <path class="fil3 str0" d="M396 309c-1,1 -3,34 -2,40 1,3 -1,2 3,3l30 2c0,0 3,3 4,-3 1,-1 0,-6 0,-9l1 -17c0,-10 3,-29 0,-34l-6 4c-4,3 -8,5 -13,6 -3,0 0,1 -4,2 -6,2 -5,0 -9,3 0,0 0,0 0,1 -1,0 -1,0 -1,0l-3 2z"/>
    <path class="fil6 str0" d="M180 367c1,1 -1,1 1,2l7 1c3,1 7,2 10,2 18,4 40,7 59,8 76,6 170,3 241,-22 22,-7 46,-19 55,-36 7,-12 0,-73 -3,-89 -9,-56 -28,-101 -54,-136 -13,-18 -27,-33 -45,-47 -9,-6 -5,-2 -15,-8 -13,-9 -31,-18 -47,-22 -37,-11 -73,1 -101,27 -9,8 -10,10 -17,17 -6,7 -19,27 -24,35 -17,27 -33,69 -42,101 -12,47 -21,98 -21,148 0,9 2,17 -4,19z"/>
    <path class="fil6 str0" d="M78 367l62 23c11,-23 8,-38 10,-61 1,-21 4,-43 8,-63 10,-55 27,-109 52,-156 11,-20 21,-35 34,-51l13 -14c4,-3 7,-7 13,-12 14,-11 25,-17 43,-24 -14,0 -42,12 -54,18 -20,10 -36,23 -52,38 -4,3 -6,6 -9,9 -13,12 -23,26 -34,40 -42,56 -77,146 -78,223 0,11 -5,20 -8,30z"/>
    <path class="fil7 str0" d="M389 430c-9,8 -94,44 -105,48 -24,10 -39,10 -66,7 -38,-5 -83,-21 -120,-32 -23,-7 -62,-20 -79,-36 -12,-10 -5,-16 3,-23 10,-9 32,-31 41,-37 6,24 34,37 58,46 69,26 169,31 244,28 8,0 16,-1 24,-1zm-309 -56c8,2 44,16 55,20 11,4 7,2 24,-10 14,-10 14,-14 23,-12 81,19 191,18 272,1 20,-4 40,-9 58,-17 18,-8 33,-16 44,-33l4 9c8,13 17,18 19,21 -4,32 -68,50 -101,58 -44,10 -93,14 -140,15 -48,1 -97,-2 -144,-10 -37,-7 -91,-20 -114,-42zm1 -34c-1,2 -7,22 -9,25 -2,-4 -4,-7 -4,-13l13 -12zm99 27c6,-2 4,-10 4,-19 0,-50 9,-101 21,-148 9,-32 25,-74 42,-101 5,-8 18,-28 24,-35 7,-7 8,-9 17,-17 28,-26 64,-38 101,-27 16,4 34,13 47,22 10,6 6,2 15,8 18,14 32,29 45,47 26,35 45,80 54,136 3,16 10,77 3,89 -9,17 -33,29 -55,36 -71,25 -165,28 -241,22 -19,-1 -41,-4 -59,-8 -3,0 -7,-1 -10,-2l-7 -1c-2,-1 0,-1 -1,-2zm-89 -108c0,-12 5,-37 8,-49 9,-41 26,-82 49,-113 24,-32 53,-56 89,-72 8,-4 31,-12 40,-12 -6,3 -13,5 -19,8 -19,10 -30,18 -47,32 -2,3 -5,5 -7,7l-20 20c-33,37 -62,87 -80,137l-13 42zm57 126c1,-4 3,-10 4,-14 2,-5 1,-12 2,-18 0,-31 5,-70 12,-100 17,-82 56,-192 133,-231 15,-8 38,-14 57,-12 -18,2 -35,7 -48,15 -17,11 -23,16 -35,30 -11,11 -19,23 -28,37 -8,13 -17,29 -23,44 -30,74 -43,143 -43,226l-24 18c-2,1 -5,4 -7,5zm-70 -18c3,-10 8,-19 8,-30 1,-77 36,-167 78,-223 11,-14 21,-28 34,-40 3,-3 5,-6 9,-9 16,-15 32,-28 52,-38 12,-6 40,-18 54,-18 -18,7 -29,13 -43,24 -6,5 -9,9 -13,12l-13 14c-13,16 -23,31 -34,51 -25,47 -42,101 -52,156 -4,20 -7,42 -8,63 -2,23 1,38 -10,61l-62 -23zm334 -347c-1,-2 -12,-6 -14,-6 -2,-1 -3,-1 -4,-2 -11,-4 -42,-12 -49,-10 -11,0 -20,-1 -30,1 -60,9 -96,19 -143,62 -7,7 -17,18 -23,26 -1,1 -2,3 -3,5 -2,1 -2,2 -4,4 -2,3 -4,7 -6,10 -8,13 -16,27 -22,43 -13,31 -22,69 -26,107 -1,11 -1,20 -3,30 -2,10 -3,20 -4,30 0,8 0,9 -3,14 -7,10 -27,25 -37,35l-17 15c-6,6 -17,14 -17,24 2,26 82,48 103,55 44,14 109,36 156,27 25,-4 109,-46 131,-58 10,-6 11,-4 25,-6 9,-1 18,-2 27,-4 34,-6 114,-22 132,-57 2,-3 4,-9 3,-13 0,-3 -1,-3 -3,-5 -5,-4 -11,-10 -15,-17 -10,-14 -6,-21 -7,-25 0,-3 -1,-4 -1,-7 -1,-50 -9,-96 -26,-140 -18,-48 -46,-85 -82,-112 -7,-5 -2,-3 -6,-6 -2,-1 -2,-1 -3,-2l-29 -18z"/>
    <path class="fil6 str0" d="M389 430c-8,0 -16,1 -24,1 -75,3 -175,-2 -244,-28 -24,-9 -52,-22 -58,-46 -9,6 -31,28 -41,37 -8,7 -15,13 -3,23 17,16 56,29 79,36 37,11 82,27 120,32 27,3 42,3 66,-7 11,-4 96,-40 105,-48z"/>
    <path class="fil6 str0" d="M80 374c23,22 77,35 114,42 47,8 96,11 144,10 47,-1 96,-5 140,-15 33,-8 97,-26 101,-58 -2,-3 -11,-8 -19,-21l-4 -9c-11,17 -26,25 -44,33 -18,8 -38,13 -58,17 -81,17 -191,18 -272,-1 -9,-2 -9,2 -23,12 -17,12 -13,14 -24,10 -11,-4 -47,-18 -55,-20z"/>
    <path class="fil8 str0" d="M412 20l29 18c1,1 1,1 3,2 4,3 -1,1 6,6 36,27 64,64 82,112 17,44 25,90 26,140 0,3 1,4 1,7 1,4 -3,11 7,25 4,7 10,13 15,17 2,2 3,2 3,5 1,4 -1,10 -3,13 -18,35 -98,51 -132,57 -9,2 -18,3 -27,4 -14,2 -15,0 -25,6 -22,12 -106,54 -131,58 -47,9 -112,-13 -156,-27 -21,-7 -101,-29 -103,-55 0,-10 11,-18 17,-24l17 -15c10,-10 30,-25 37,-35 3,-5 3,-6 3,-14 1,-10 2,-20 4,-30 2,-10 2,-19 3,-30 4,-38 13,-76 26,-107 6,-16 14,-30 22,-43 2,-3 4,-7 6,-10 2,-2 2,-3 4,-4 1,-2 2,-4 3,-5 6,-8 16,-19 23,-26 47,-43 83,-53 143,-62 10,-2 19,-1 30,-1 -2,-2 0,-1 -2,-1 -1,0 -3,0 -3,0 -3,0 -3,-1 -5,-1l-17 0c-7,0 -15,1 -19,1 -11,0 -30,5 -40,7 -30,9 -65,27 -87,49 -21,20 -35,37 -50,64 -20,36 -31,70 -38,115 -1,8 -2,15 -3,23 0,4 -1,9 -1,12l-1 25c-2,19 7,26 -24,52l-36 32c-7,7 -18,16 -19,26l0 0 0 3c1,13 12,21 21,27 19,12 44,21 68,29 29,9 86,27 115,31 11,2 21,3 30,4l14 0c13,-1 25,-4 40,-10 3,-1 5,-2 8,-3 17,-7 62,-27 76,-35l32 -17 22 -2c36,-4 83,-15 116,-30 15,-7 34,-18 42,-34 4,-8 4,-9 4,-21l0 0c-9,-5 -22,-19 -25,-31 -2,-6 1,-12 1,-17 -3,-1 -2,0 -2,-5l-1 -19c0,-4 -1,-10 -1,-13 -3,-25 -4,-34 -10,-60 -4,-15 -10,-37 -16,-51l-7 -14c-8,-18 -15,-30 -27,-46 -9,-13 -18,-22 -28,-32 -16,-16 -36,-28 -55,-38 -2,-1 -2,-2 -5,-2z"/>
    <path class="fil6 str0" d="M148 385c2,-1 5,-4 7,-5l24 -18c0,-83 13,-152 43,-226 6,-15 15,-31 23,-44 9,-14 17,-26 28,-37 12,-14 18,-19 35,-30 13,-8 30,-13 48,-15 -19,-2 -42,4 -57,12 -77,39 -116,149 -133,231 -7,30 -12,69 -12,100 -1,6 0,13 -2,18 -1,4 -3,10 -4,14z"/>
    <path class="fil6 str0" d="M91 259l13 -42c18,-50 47,-100 80,-137l20 -20c2,-2 5,-4 7,-7 17,-14 28,-22 47,-32 6,-3 13,-5 19,-8 -9,0 -32,8 -40,12 -36,16 -65,40 -89,72 -23,31 -40,72 -49,113 -3,12 -8,37 -8,49z"/>
    <path class="fil9 str0" d="M68 352c0,6 2,9 4,13 2,-3 8,-23 9,-25l-13 12z"/>
   </g>
  </g>
 </g>
</svg>
