<?xml version="1.0" standalone="no"?>
<!DOCTYPE svg PUBLIC "-//W3C//DTD SVG 20010904//EN"
 "http://www.w3.org/TR/2001/REC-SVG-20010904/DTD/svg10.dtd">
<svg version="1.0" xmlns="http://www.w3.org/2000/svg"
 width="256.000000pt" height="256.000000pt" viewBox="0 0 256.000000 256.000000"
 preserveAspectRatio="xMidYMid meet">
<metadata>
Created by potrace 1.14, written by Peter Selinger 2001-2017
</metadata>
<g transform="translate(0.000000,256.000000) scale(0.100000,-0.100000)"
fill="#000000" stroke="none">
<path d="M1490 2081 c-103 -83 -189 -146 -195 -142 -5 5 -98 70 -205 146
l-195 139 -375 -68 c-206 -38 -397 -73 -424 -78 l-49 -10 209 -209 209 -209
-210 -210 c-115 -115 -206 -213 -202 -217 4 -4 96 -44 205 -89 l197 -81 5
-204 5 -204 405 -166 c377 -155 407 -165 435 -154 17 6 202 81 412 166 l383
154 0 200 0 200 208 89 c114 49 209 91 212 93 2 2 -90 98 -205 213 l-210 210
205 205 c112 112 202 206 200 208 -5 3 -821 168 -830 167 -3 -1 -88 -68 -190
-149z m184 -314 l368 -123 -367 -152 -368 -152 -394 152 c-216 84 -387 155
-381 158 31 11 754 238 763 239 6 1 176 -54 379 -122z"/>
</g>
</svg>
