<?xml version="1.0" standalone="no"?>
<!DOCTYPE svg PUBLIC "-//W3C//DTD SVG 20010904//EN"
 "http://www.w3.org/TR/2001/REC-SVG-20010904/DTD/svg10.dtd">
<svg version="1.0" xmlns="http://www.w3.org/2000/svg"
 width="512.000000pt" height="512.000000pt" viewBox="0 0 512.000000 512.000000"
 preserveAspectRatio="xMidYMid meet">
<metadata>
Created by potrace 1.14, written by Peter Selinger 2001-2017
</metadata>
<g transform="translate(0.000000,512.000000) scale(0.100000,-0.100000)"
fill="#000000" stroke="none">
<path d="M788 4306 c-97 -35 -150 -81 -199 -176 -24 -44 -24 -49 -24 -350 l0
-305 34 -63 c37 -69 79 -109 151 -144 l45 -23 843 -3 842 -3 0 -119 0 -119
-842 -3 -843 -3 -51 -27 c-76 -40 -107 -70 -145 -140 l-34 -63 -3 -283 c-3
-242 -1 -291 13 -336 25 -79 79 -143 155 -185 l65 -36 843 -3 842 -2 0 -120 0
-120 -842 -2 -843 -3 -50 -25 c-64 -31 -124 -91 -155 -155 -25 -50 -25 -51
-25 -355 l0 -305 36 -65 c23 -43 52 -78 84 -102 97 -74 -49 -69 1895 -66
l1745 3 63 34 c70 38 100 69 140 145 l27 51 0 305 0 305 -34 63 c-38 70 -69
100 -145 140 l-51 27 -842 3 -843 2 0 120 0 120 843 2 842 3 51 27 c76 40 107
70 145 140 l34 63 3 284 c3 241 1 291 -13 336 -25 78 -79 142 -155 184 l-65
36 -842 3 -843 2 0 120 0 120 843 2 842 3 51 27 c76 40 107 70 145 140 l34 63
0 305 0 305 -36 65 c-23 42 -52 78 -83 101 -98 74 48 69 -1880 69 -1398 -1
-1738 -3 -1768 -14z m2742 -360 c138 -91 106 -311 -53 -355 -155 -44 -290 91
-248 247 14 51 75 117 123 131 53 16 135 6 178 -23z m600 0 c138 -91 106 -311
-53 -355 -155 -44 -290 91 -248 247 14 51 75 117 123 131 53 16 135 6 178 -23z
m-1290 -186 l0 -200 -920 0 -920 0 0 200 0 200 920 0 920 0 0 -200z m690
-1134 c59 -39 85 -89 85 -166 0 -78 -26 -127 -88 -168 -56 -37 -153 -39 -210
-3 -76 47 -111 140 -88 229 14 51 75 117 123 131 53 16 135 6 178 -23z m600 0
c59 -39 85 -89 85 -166 0 -78 -26 -127 -88 -168 -56 -37 -153 -39 -210 -3 -76
47 -111 140 -88 229 14 51 75 117 123 131 53 16 135 6 178 -23z m-1290 -186
l0 -200 -920 0 -920 0 0 200 0 200 920 0 920 0 0 -200z m0 -1280 l0 -200 -920
0 -920 0 0 200 0 200 920 0 920 0 0 -200z m690 146 c59 -39 85 -89 85 -166 0
-78 -26 -127 -88 -168 -56 -37 -153 -39 -210 -3 -76 47 -111 140 -88 229 14
51 75 117 123 131 53 16 135 6 178 -23z m600 0 c59 -39 85 -89 85 -166 0 -78
-26 -127 -88 -168 -56 -37 -153 -39 -210 -3 -76 47 -111 140 -88 229 14 51 75
117 123 131 53 16 135 6 178 -23z"/>
</g>
</svg>
