/* XPM */
static char * bottom_right_active_xpm[] = {
"16 16 3 1",
" 	c None",
".	c #858585",
"+	c #A6A6A6",
"               .",
"               .",
"               .",
"               .",
"               .",
"               .",
"               .",
"               .",
"               .",
"               .",
"               .",
"               .",
"               .",
"               .",
"+++++++++++++++.",
"                "};
