/* XPM */
static char * maximize_toggled_inactive_xpm[] = {
"24 25 5 1",
" 	c None",
".	c #858585",
"+	c #F7F7F7",
"@	c #E9E9E9",
"#	c #2B98DD",
"........................",
"++++++++++++++++++++++++",
"++++++++++++++++++++++++",
"++++++++++++++++++++++++",
"++++++++++++++++++++++++",
"++++++++++++++++++++++++",
"++++++++++++++++++++++++",
"++++++++++++++++++++++++",
"+++++++++++@@+++++++++++",
"+++++++++++##+++++++++++",
"+++++++++++##+++++++++++",
"++++++++++@##@++++++++++",
"+++++++@########@+++++++",
"+++++++@########@+++++++",
"++++++++++@##@++++++++++",
"+++++++++++##+++++++++++",
"+++++++++++##+++++++++++",
"+++++++++++@@+++++++++++",
"++++++++++++++++++++++++",
"++++++++++++++++++++++++",
"++++++++++++++++++++++++",
"++++++++++++++++++++++++",
"++++++++++++++++++++++++",
"++++++++++++++++++++++++",
"++++++++++++++++++++++++"};
