/* XPM */
static char * menu_pressed_xpm[] = {
"16 25 4 1",
" 	c None",
".	c #858585",
"+	c #F7F7F7",
"@	c #494949",
"................",
"++++++++++++++++",
"++++++++++++++++",
"++++++++++++++++",
"++++++++++++++++",
"++++++++++++++++",
"++++++++++++++++",
"++++++++++++++++",
"++++++++++++++++",
"++++++++++++++++",
"++++@@@@@@@@++++",
"++++@@@@@@@@++++",
"++++++++++++++++",
"++++++++++++++++",
"++++@@@@@@@@++++",
"++++@@@@@@@@++++",
"++++++++++++++++",
"++++++++++++++++",
"++++++++++++++++",
"++++++++++++++++",
"++++++++++++++++",
"++++++++++++++++",
"++++++++++++++++",
"++++++++++++++++",
"++++++++++++++++"};
