/* XPM */
static char * stick_pressed_xpm[] = {
"24 25 5 1",
" 	c None",
".	c #858585",
"+	c #F7F7F7",
"@	c #FFA55D",
"#	c #E9E9E9",
"........................",
"++++++++++++++++++++++++",
"++++++++++++++++++++++++",
"++++++++++++++++++++++++",
"++++++++++++++++++++++++",
"++++++++++++++++++++++++",
"++++++++++++++++++++++++",
"++++++++++++++++++++++++",
"+++++++@@@@@@@@@@+++++++",
"+++++++@++++++++@+++++++",
"+++++++@++++++++@+++++++",
"+++++++@++#@@#++@+++++++",
"+++++++@++@@@@++@+++++++",
"+++++++@++@@@@++@+++++++",
"+++++++@++#@@#++@+++++++",
"+++++++@++++++++@+++++++",
"+++++++@++++++++@+++++++",
"+++++++@@@@@@@@@@+++++++",
"++++++++++++++++++++++++",
"++++++++++++++++++++++++",
"++++++++++++++++++++++++",
"++++++++++++++++++++++++",
"++++++++++++++++++++++++",
"++++++++++++++++++++++++",
"++++++++++++++++++++++++"};
