/* XPM */
static char * top_right_inactive_xpm[] = {
"6 63 6 1",
" 	c None",
".	c #858585",
"+	c #F7F7F7",
"@	c #7E7E7E",
"#	c #808080",
"$	c #797979",
"......",
"+++++@",
"+++++@",
"+++++@",
"+++++@",
"+++++#",
"+++++#",
"+++++#",
"+++++#",
"+++++#",
"+++++#",
"+++++#",
"+++++#",
"+++++#",
"+++++#",
"+++++#",
"+++++#",
"+++++#",
"+++++#",
"+++++#",
"+++++#",
"+++++#",
"+++++#",
"+++++.",
"+++++$",
"     $",
"     $",
"     $",
"     $",
"     $",
"     $",
"     $",
"     $",
"     $",
"     $",
"     $",
"     $",
"     $",
"     $",
"     $",
"     $",
"     $",
"     $",
"     $",
"     $",
"     $",
"     $",
"     $",
"     $",
"     $",
"     $",
"     $",
"     $",
"     $",
"     $",
"     $",
"     $",
"     $",
"     $",
"     $",
"     $",
"     $",
"     $"};
