<?xml version="1.0" standalone="no"?>
<!DOCTYPE svg PUBLIC "-//W3C//DTD SVG 20010904//EN"
 "http://www.w3.org/TR/2001/REC-SVG-20010904/DTD/svg10.dtd">
<svg version="1.0" xmlns="http://www.w3.org/2000/svg"
 width="1024.000000pt" height="1024.000000pt" viewBox="0 0 1024.000000 1024.000000"
 preserveAspectRatio="xMidYMid meet">
<metadata>
Created by potrace 1.13, written by Peter Selinger 2001-2015
</metadata>
<g transform="translate(0.000000,1024.000000) scale(0.100000,-0.100000)"
fill="#000000" stroke="none">
<path d="M3299 10236 c-2 -2 -41 -7 -86 -10 -46 -4 -91 -9 -100 -10 -35 -7
-99 -17 -133 -21 -136 -17 -416 -90 -611 -159 -370 -131 -753 -345 -1034 -577
-140 -116 -190 -161 -309 -282 -387 -391 -668 -848 -845 -1372 -41 -123 -104
-357 -115 -430 -4 -22 -8 -47 -11 -55 -2 -8 -6 -32 -9 -52 -12 -80 -17 -114
-21 -137 -14 -84 -20 -220 -20 -456 0 -241 3 -320 20 -459 4 -39 6 -49 24
-156 8 -44 35 -176 56 -270 12 -56 74 -253 107 -345 182 -494 452 -917 828
-1295 486 -489 1091 -822 1760 -969 52 -11 111 -23 130 -26 19 -3 60 -10 90
-15 30 -5 80 -12 110 -15 30 -4 66 -8 80 -10 176 -26 620 -20 811 10 14 3 41
7 60 9 222 30 600 126 734 186 11 5 56 23 100 40 115 44 364 168 475 235 100
60 301 193 310 204 3 4 25 22 48 40 l44 34 429 -429 c236 -236 429 -432 429
-437 0 -4 -10 -18 -21 -30 -12 -12 -35 -51 -52 -87 -28 -57 -31 -75 -31 -150
1 -94 24 -172 69 -225 14 -16 584 -589 1267 -1272 l1242 -1243 92 0 91 0 467
466 466 466 0 52 0 51 -1282 1281 c-1137 1135 -1289 1283 -1336 1303 -103 43
-201 47 -294 11 -53 -20 -118 -60 -118 -72 0 -32 -83 44 -456 417 l-425 425
38 48 c21 26 41 49 44 52 10 9 143 202 199 290 66 104 224 415 269 530 100
253 186 559 216 765 3 23 7 50 9 60 3 19 11 80 21 165 22 186 22 594 0 720 -2
14 -7 52 -10 85 -3 33 -8 67 -10 75 -2 8 -6 37 -10 64 -7 60 -48 244 -75 346
-12 41 -23 83 -25 94 -11 46 -81 242 -127 350 -238 571 -598 1043 -1098 1441
-392 313 -907 558 -1405 669 -104 24 -132 29 -207 41 -18 3 -44 7 -58 10 -14
2 -52 7 -85 11 -33 3 -69 9 -80 11 -24 6 -630 15 -636 9z m571 -759 c14 -3 50
-8 80 -12 592 -73 1183 -367 1614 -801 135 -137 200 -214 338 -404 41 -58 142
-229 187 -318 73 -144 182 -428 198 -511 2 -14 6 -28 8 -31 5 -8 44 -183 51
-230 3 -19 7 -46 10 -60 45 -242 41 -689 -10 -936 -2 -12 -7 -37 -10 -55 -22
-133 -80 -327 -149 -499 -137 -343 -343 -657 -605 -924 -317 -323 -694 -559
-1127 -704 -86 -29 -270 -78 -331 -88 -16 -2 -38 -6 -50 -9 -12 -3 -39 -7 -60
-10 -21 -4 -49 -8 -61 -10 -84 -14 -206 -20 -383 -20 -180 0 -374 10 -391 21
-3 1 -28 6 -55 9 -27 4 -80 14 -119 22 -38 8 -86 19 -105 23 -161 34 -382 116
-585 215 -448 220 -834 565 -1120 1004 -214 327 -377 771 -421 1146 -3 28 -10
77 -14 110 -9 64 -6 533 3 575 3 14 11 63 17 110 6 47 18 112 25 145 8 33 16
71 18 85 11 60 90 313 117 375 5 11 21 49 36 85 167 410 487 824 858 1114 158
123 276 198 480 302 218 112 532 215 771 253 94 15 126 20 196 27 35 3 66 8
68 10 6 6 491 -3 521 -9z"/>
</g>
</svg>
