/* XPM */
static char * menu_active_xpm[] = {
"16 25 4 1",
" 	c None",
".	c #373737",
"+	c #404346",
"@	c #DEDEDE",
"................",
"++++++++++++++++",
"++++++++++++++++",
"++++++++++++++++",
"++++++++++++++++",
"++++++++++++++++",
"++++++++++++++++",
"++++++++++++++++",
"++++++++++++++++",
"++++++++++++++++",
"++++@@@@@@@@++++",
"++++@@@@@@@@++++",
"++++++++++++++++",
"++++++++++++++++",
"++++@@@@@@@@++++",
"++++@@@@@@@@++++",
"++++++++++++++++",
"++++++++++++++++",
"++++++++++++++++",
"++++++++++++++++",
"++++++++++++++++",
"++++++++++++++++",
"++++++++++++++++",
"++++++++++++++++",
"++++++++++++++++"};
