/* XPM */
static char * top_left_active_xpm[] = {
"6 63 3 1",
" 	c None",
".	c #373737",
"+	c #404346",
"......",
".+++++",
".+++++",
".+++++",
".+++++",
".+++++",
".+++++",
".+++++",
".+++++",
".+++++",
".+++++",
".+++++",
".+++++",
".+++++",
".+++++",
".+++++",
".+++++",
".+++++",
".+++++",
".+++++",
".+++++",
".+++++",
".+++++",
".+++++",
".+++++",
".     ",
".     ",
".     ",
".     ",
".     ",
".     ",
".     ",
".     ",
".     ",
".     ",
".     ",
".     ",
".     ",
".     ",
".     ",
".     ",
".     ",
".     ",
".     ",
".     ",
".     ",
".     ",
".     ",
".     ",
".     ",
".     ",
".     ",
".     ",
".     ",
".     ",
".     ",
".     ",
".     ",
".     ",
".     ",
".     ",
".     ",
".     "};
