<?xml version="1.0" standalone="no"?>
<!DOCTYPE svg PUBLIC "-//W3C//DTD SVG 20010904//EN"
 "http://www.w3.org/TR/2001/REC-SVG-20010904/DTD/svg10.dtd">
<svg version="1.0" xmlns="http://www.w3.org/2000/svg"
 width="256.000000pt" height="256.000000pt" viewBox="0 0 256.000000 256.000000"
 preserveAspectRatio="xMidYMid meet">
<metadata>
Created by potrace 1.14, written by Peter Selinger 2001-2017
</metadata>
<g transform="translate(0.000000,256.000000) scale(0.100000,-0.100000)"
fill="#000000" stroke="none">
<path d="M960 2311 c-337 -74 -613 -293 -760 -603 -147 -311 -137 -689 27
-988 161 -294 435 -494 760 -556 131 -24 355 -15 482 20 112 31 257 100 344
163 71 52 197 172 196 188 0 5 -64 63 -141 127 l-140 118 -71 -65 c-251 -233
-634 -247 -910 -34 -119 91 -218 247 -252 393 -19 82 -21 232 -5 312 92 443
575 687 987 499 83 -38 127 -69 199 -137 l51 -49 139 117 c76 64 140 122 142
129 4 18 -143 154 -228 210 -92 60 -221 118 -326 146 -116 31 -376 36 -494 10z"/>
<path d="M1999 1858 c-323 -244 -344 -262 -344 -291 0 -25 5 -33 25 -40 21 -7
80 21 403 193 207 111 377 206 377 211 0 11 -50 96 -87 147 l-29 40 -345 -260z"/>
<path d="M1993 1621 c-90 -43 -165 -80 -167 -82 -3 -3 7 -41 21 -84 24 -71 27
-96 27 -215 0 -119 -3 -144 -27 -215 -14 -43 -24 -81 -22 -83 2 -2 79 -40 172
-83 195 -92 177 -95 222 46 75 232 67 512 -21 731 -13 31 -27 59 -33 60 -5 1
-83 -33 -172 -75z"/>
<path d="M1663 953 c-7 -2 -13 -19 -13 -36 0 -30 21 -47 347 -294 l346 -262
24 32 c31 41 93 146 93 156 0 12 -749 411 -769 410 -9 0 -22 -3 -28 -6z"/>
</g>
</svg>
