<svg id="svg" version="1.1" viewBox="0 0 400 400" width="200pt" height="200pt" xmlns="http://www.w3.org/2000/svg" xmlns:xlink="http://www.w3.org/1999/xlink" style="display: block;"><g id="svgg"><path id="path0" d="M77.117 103.854 C 75.061 106.297,75.050 106.387,75.050 120.656 C 75.050 141.586,71.215 139.898,118.030 139.563 L 151.829 139.321 154.208 136.658 L 156.586 133.995 156.337 119.621 L 156.088 105.248 153.848 103.322 L 151.608 101.397 115.396 101.397 L 79.184 101.397 77.117 103.854 M80.457 142.635 C 75.660 143.476,75.050 145.598,75.050 161.447 L 75.050 175.772 77.384 178.105 L 79.717 180.439 93.812 180.439 L 107.907 180.439 110.241 178.105 L 112.575 175.772 112.575 161.383 C 112.575 147.484,112.512 146.922,110.722 144.842 L 108.870 142.688 95.752 142.471 C 88.538 142.351,81.655 142.425,80.457 142.635 M121.974 142.693 C 117.196 143.404,116.567 145.588,116.567 161.447 L 116.567 175.772 118.901 178.105 L 121.234 180.439 157.024 180.421 C 201.732 180.399,198.004 182.171,198.004 160.943 L 198.004 147.730 195.808 145.379 L 193.613 143.029 158.882 142.699 C 139.780 142.517,123.172 142.514,121.974 142.693 M163.958 182.828 C 159.040 184.812,157.171 212.561,161.607 217.720 L 163.533 219.960 198.907 220.184 C 244.556 220.473,241.118 222.020,241.118 201.198 C 241.118 187.154,240.532 184.714,236.749 182.990 C 234.256 181.854,166.743 181.704,163.958 182.828 M77.445 184.402 C 75.457 185.928,75.448 185.991,75.201 201.144 L 74.953 216.354 77.114 218.357 L 79.275 220.359 115.814 220.359 L 152.353 220.359 154.420 217.903 C 156.471 215.465,156.487 215.341,156.487 201.474 L 156.487 187.502 154.153 185.168 L 151.819 182.834 115.630 182.852 C 81.193 182.869,79.345 182.944,77.445 184.402 M79.288 223.561 C 75.439 225.111,74.940 227.218,74.964 241.850 C 74.994 261.076,74.996 261.078,93.812 261.078 C 112.626 261.078,112.603 261.102,112.618 241.840 C 112.630 226.955,112.163 225.066,108.090 223.517 C 105.588 222.566,81.668 222.602,79.288 223.561 M120.958 223.509 C 116.747 225.233,116.468 226.360,116.483 241.596 C 116.504 262.856,112.869 261.203,158.955 260.903 L 193.346 260.679 195.675 258.071 L 198.004 255.464 198.004 242.263 C 198.004 227.810,197.323 224.964,193.523 223.519 C 191.063 222.584,123.241 222.575,120.958 223.509 M205.431 223.550 C 201.903 224.996,201.198 228.062,201.198 241.953 C 201.198 262.644,198.059 261.259,244.182 260.927 L 278.782 260.679 280.709 258.439 C 282.593 256.247,282.635 255.879,282.635 241.612 L 282.635 227.025 280.575 225.089 L 278.515 223.154 242.850 222.992 C 223.105 222.903,206.402 223.152,205.431 223.550 M77.117 265.930 C 73.964 269.677,73.879 295.907,77.010 299.038 L 78.969 300.998 115.533 300.973 C 160.636 300.941,156.487 302.881,156.487 281.827 L 156.487 268.141 154.153 265.807 L 151.819 263.473 115.502 263.473 L 79.184 263.473 77.117 265.930 M161.748 265.930 C 158.594 269.677,158.509 295.907,161.640 299.038 L 163.600 300.998 200.163 300.973 C 245.267 300.941,241.118 302.881,241.118 281.827 L 241.118 268.141 238.784 265.807 L 236.450 263.473 200.132 263.473 L 163.815 263.473 161.748 265.930 M246.645 265.807 L 244.311 268.141 244.311 282.466 C 244.311 295.749,244.432 296.944,245.966 298.894 L 247.621 300.998 284.489 300.973 C 329.945 300.941,325.749 302.889,325.749 281.827 L 325.749 268.141 323.415 265.807 L 321.081 263.473 285.030 263.473 L 248.979 263.473 246.645 265.807 " stroke="none" fill="#ffffff" fill-rule="evenodd"></path><path id="path1" d="M0.000 120.559 L 0.000 241.118 37.040 241.118 C 70.080 241.118,74.133 240.981,74.565 239.855 C 74.832 239.160,75.050 236.126,75.050 233.113 C 75.050 228.472,75.345 227.291,76.977 225.394 L 78.904 223.154 93.812 223.154 L 108.721 223.154 110.648 225.394 C 112.337 227.357,112.575 228.421,112.575 234.002 C 112.575 239.104,112.829 240.467,113.853 240.860 C 115.847 241.625,116.541 239.624,116.555 233.073 C 116.566 227.612,116.767 226.837,118.626 225.089 L 120.686 223.154 155.153 222.916 C 199.853 222.608,197.995 222.089,198.001 234.881 C 198.004 240.525,198.132 241.009,199.601 240.898 C 201.045 240.789,201.198 240.205,201.201 234.760 C 201.207 222.109,199.401 222.608,244.048 222.916 L 278.515 223.154 280.575 225.089 C 282.487 226.886,282.635 227.530,282.635 234.071 L 282.635 241.118 341.317 241.118 L 400.000 241.118 400.000 120.559 L 400.000 0.000 200.000 0.000 L 0.000 0.000 0.000 120.559 M153.848 103.322 L 156.088 105.248 156.337 119.621 L 156.586 133.995 154.208 136.658 L 151.829 139.321 118.030 139.563 C 71.215 139.898,75.050 141.586,75.050 120.656 C 75.050 106.387,75.061 106.297,77.117 103.854 L 79.184 101.397 115.396 101.397 L 151.608 101.397 153.848 103.322 M110.722 144.842 C 112.512 146.922,112.575 147.484,112.575 161.383 L 112.575 175.772 110.241 178.105 L 107.907 180.439 93.812 180.439 L 79.717 180.439 77.384 178.105 L 75.050 175.772 75.050 161.447 C 75.050 141.302,74.165 142.113,95.752 142.471 L 108.870 142.688 110.722 144.842 M195.808 145.379 L 198.004 147.730 198.004 160.943 C 198.004 182.171,201.732 180.399,157.024 180.421 L 121.234 180.439 118.901 178.105 L 116.567 175.772 116.567 161.447 C 116.567 140.219,111.977 142.252,158.882 142.699 L 193.613 143.029 195.808 145.379 M236.749 182.990 C 240.532 184.714,241.118 187.154,241.118 201.198 C 241.118 222.020,244.556 220.473,198.907 220.184 L 163.533 219.960 161.607 217.720 C 157.171 212.561,159.040 184.812,163.958 182.828 C 166.743 181.704,234.256 181.854,236.749 182.990 M154.153 185.168 L 156.487 187.502 156.487 201.474 C 156.487 215.341,156.471 215.465,154.420 217.903 L 152.353 220.359 115.814 220.359 L 79.275 220.359 77.114 218.357 L 74.953 216.354 75.201 201.144 C 75.536 180.614,70.540 182.874,115.630 182.852 L 151.819 182.834 154.153 185.168 " stroke="none" fill="#ffb33a" fill-rule="evenodd"></path><path id="path2" d="M199.002 240.893 C 198.305 241.143,198.004 243.395,198.004 248.357 C 198.004 255.081,197.879 255.604,195.674 258.071 L 193.344 260.679 156.973 260.679 L 120.603 260.679 118.784 258.864 C 117.212 257.295,116.912 255.997,116.567 249.283 C 116.191 241.978,116.061 241.502,114.371 241.262 C 112.621 241.013,112.575 241.193,112.575 248.300 C 112.575 260.240,111.344 261.078,93.812 261.078 C 76.415 261.078,75.655 260.592,75.050 249.102 L 74.651 241.517 37.325 241.309 L 0.000 241.102 0.000 320.152 L 0.000 399.202 200.000 399.202 L 400.000 399.202 400.000 320.160 L 400.000 241.118 341.317 241.118 L 282.635 241.118 282.635 248.658 C 282.635 255.477,282.450 256.413,280.709 258.439 L 278.782 260.679 244.182 260.927 C 199.926 261.245,201.198 261.627,201.198 248.028 C 201.198 241.227,200.887 240.217,199.002 240.893 M154.153 265.807 L 156.487 268.141 156.487 281.827 C 156.487 302.881,160.636 300.941,115.533 300.973 L 78.969 300.998 77.010 299.038 C 73.879 295.907,73.964 269.677,77.117 265.930 L 79.184 263.473 115.502 263.473 L 151.819 263.473 154.153 265.807 M238.784 265.807 L 241.118 268.141 241.118 281.827 C 241.118 302.881,245.267 300.941,200.163 300.973 L 163.600 300.998 161.640 299.038 C 158.509 295.907,158.594 269.677,161.748 265.930 L 163.815 263.473 200.132 263.473 L 236.450 263.473 238.784 265.807 M323.415 265.807 L 325.749 268.141 325.749 281.827 C 325.749 302.889,329.945 300.941,284.489 300.973 L 247.621 300.998 245.966 298.894 C 244.432 296.944,244.311 295.749,244.311 282.466 L 244.311 268.141 246.645 265.807 L 248.979 263.473 285.030 263.473 L 321.081 263.473 323.415 265.807 " stroke="none" fill="#00c29f" fill-rule="evenodd"></path></g></svg>