<?xml version="1.0" encoding="UTF-8" standalone="no"?>
<!DOCTYPE svg PUBLIC "-//W3C//DTD SVG 1.1//EN" "http://www.w3.org/Graphics/SVG/1.1/DTD/svg11.dtd">
<svg xmlns="http://www.w3.org/2000/svg" xmlns:xl="http://www.w3.org/1999/xlink" version="1.1" viewBox="-698 -858 630 630" width="630pt" height="630pt" xmlns:dc="http://purl.org/dc/elements/1.1/">
  <metadata> Produced by OmniGraffle 7.0.2 
    <dc:date>2016-10-17 04:58:01 +0000</dc:date>
  </metadata>
  <defs/>
  <g stroke="none" stroke-opacity="1" stroke-dasharray="none" fill="none" fill-opacity="1">
    <title>Canvas 1</title>
    <g>
      <title>Layer 1</title>
      <path d="M -684.25 -254 L -81.25 -254 C -74.20837 -254 -68.5 -248.29163 -68.5 -241.25 L -68.5 -241.25 C -68.5 -234.20837 -74.20837 -228.5 -81.25 -228.5 L -684.25 -228.5 C -691.2916 -228.5 -697 -234.20837 -697 -241.25 L -697 -241.25 C -697 -248.29163 -691.2916 -254 -684.25 -254 Z" fill="black"/>
      <path d="M -684.25 -254 L -81.25 -254 C -74.20837 -254 -68.5 -248.29163 -68.5 -241.25 L -68.5 -241.25 C -68.5 -234.20837 -74.20837 -228.5 -81.25 -228.5 L -684.25 -228.5 C -691.2916 -228.5 -697 -234.20837 -697 -241.25 L -697 -241.25 C -697 -248.29163 -691.2916 -254 -684.25 -254 Z" stroke="black" stroke-linecap="round" stroke-linejoin="round" stroke-width="1"/>
      <path d="M -614.3967 -323.73856 L -471.5812 -323.73856 C -454.68816 -323.73856 -440.97787 -317.63712 -440.97787 -310.11928 C -440.97787 -302.60144 -454.68816 -296.5 -471.5812 -296.5 L -614.3967 -296.5 C -631.2897 -296.5 -645 -302.60144 -645 -310.11928 C -645 -317.63712 -631.2897 -323.73856 -614.3967 -323.73856" fill="black"/>
      <path d="M -614.3967 -323.73856 L -471.5812 -323.73856 C -454.68816 -323.73856 -440.97787 -317.63712 -440.97787 -310.11928 C -440.97787 -302.60144 -454.68816 -296.5 -471.5812 -296.5 L -614.3967 -296.5 C -631.2897 -296.5 -645 -302.60144 -645 -310.11928 C -645 -317.63712 -631.2897 -323.73856 -614.3967 -323.73856" stroke="black" stroke-linecap="round" stroke-linejoin="round" stroke-width="1"/>
      <path d="M -375.65874 -323.73856 L -232.84325 -323.73856 C -215.95022 -323.73856 -202.23993 -317.63712 -202.23993 -310.11928 C -202.23993 -302.60144 -215.95022 -296.5 -232.84325 -296.5 L -375.65874 -296.5 C -392.55178 -296.5 -406.26206 -302.60144 -406.26206 -310.11928 C -406.26206 -317.63712 -392.55178 -323.73856 -375.65874 -323.73856" fill="#797979"/>
      <path d="M -375.65874 -323.73856 L -232.84325 -323.73856 C -215.95022 -323.73856 -202.23993 -317.63712 -202.23993 -310.11928 C -202.23993 -302.60144 -215.95022 -296.5 -232.84325 -296.5 L -375.65874 -296.5 C -392.55178 -296.5 -406.26206 -302.60144 -406.26206 -310.11928 C -406.26206 -317.63712 -392.55178 -323.73856 -375.65874 -323.73856" stroke="#aaa" stroke-linecap="round" stroke-linejoin="round" stroke-width="1"/>
      <path d="M -571.13544 -399.50217 L -428.31995 -399.50217 C -411.4269 -399.50217 -397.71663 -393.40074 -397.71663 -385.8829 C -397.71663 -378.36505 -411.4269 -372.2636 -428.31995 -372.2636 L -571.13544 -372.2636 C -588.0285 -372.2636 -601.73876 -378.36505 -601.73876 -385.8829 C -601.73876 -393.40074 -588.0285 -399.50217 -571.13544 -399.50217" fill="black"/>
      <path d="M -571.13544 -399.50217 L -428.31995 -399.50217 C -411.4269 -399.50217 -397.71663 -393.40074 -397.71663 -385.8829 C -397.71663 -378.36505 -411.4269 -372.2636 -428.31995 -372.2636 L -571.13544 -372.2636 C -588.0285 -372.2636 -601.73876 -378.36505 -601.73876 -385.8829 C -601.73876 -393.40074 -588.0285 -399.50217 -571.13544 -399.50217" stroke="black" stroke-linecap="round" stroke-linejoin="round" stroke-width="1"/>
      <path d="M -323.85208 -399.50217 L -181.03659 -399.50217 C -164.14355 -399.50217 -150.43327 -393.40074 -150.43327 -385.8829 C -150.43327 -378.36505 -164.14355 -372.2636 -181.03659 -372.2636 L -323.85208 -372.2636 C -340.7451 -372.2636 -354.4554 -378.36505 -354.4554 -385.8829 C -354.4554 -393.40074 -340.7451 -399.50217 -323.85208 -399.50217" fill="#797979"/>
      <path d="M -323.85208 -399.50217 L -181.03659 -399.50217 C -164.14355 -399.50217 -150.43327 -393.40074 -150.43327 -385.8829 C -150.43327 -378.36505 -164.14355 -372.2636 -181.03659 -372.2636 L -323.85208 -372.2636 C -340.7451 -372.2636 -354.4554 -378.36505 -354.4554 -385.8829 C -354.4554 -393.40074 -340.7451 -399.50217 -323.85208 -399.50217" stroke="#aaa" stroke-linecap="round" stroke-linejoin="round" stroke-width="1"/>
      <path d="M -513.4538 -475.2658 L -370.6383 -475.2658 C -353.74527 -475.2658 -340.035 -469.16435 -340.035 -461.6465 C -340.035 -454.12867 -353.74527 -448.02723 -370.6383 -448.02723 L -513.4538 -448.02723 C -530.3468 -448.02723 -544.0571 -454.12867 -544.0571 -461.6465 C -544.0571 -469.16435 -530.3468 -475.2658 -513.4538 -475.2658" fill="black"/>
      <path d="M -513.4538 -475.2658 L -370.6383 -475.2658 C -353.74527 -475.2658 -340.035 -469.16435 -340.035 -461.6465 C -340.035 -454.12867 -353.74527 -448.02723 -370.6383 -448.02723 L -513.4538 -448.02723 C -530.3468 -448.02723 -544.0571 -454.12867 -544.0571 -461.6465 C -544.0571 -469.16435 -530.3468 -475.2658 -513.4538 -475.2658" stroke="black" stroke-linecap="round" stroke-linejoin="round" stroke-width="1"/>
      <path d="M -265.10225 -475.2658 L -122.28676 -475.2658 C -105.39373 -475.2658 -91.68344 -469.16435 -91.68344 -461.6465 C -91.68344 -454.12867 -105.39373 -448.02723 -122.28676 -448.02723 L -265.10225 -448.02723 C -281.99528 -448.02723 -295.70557 -454.12867 -295.70557 -461.6465 C -295.70557 -469.16435 -281.99528 -475.2658 -265.10225 -475.2658" fill="#797979"/>
      <path d="M -265.10225 -475.2658 L -122.28676 -475.2658 C -105.39373 -475.2658 -91.68344 -469.16435 -91.68344 -461.6465 C -91.68344 -454.12867 -105.39373 -448.02723 -122.28676 -448.02723 L -265.10225 -448.02723 C -281.99528 -448.02723 -295.70557 -454.12867 -295.70557 -461.6465 C -295.70557 -469.16435 -281.99528 -475.2658 -265.10225 -475.2658" stroke="#aaa" stroke-linecap="round" stroke-linejoin="round" stroke-width="1"/>
      <path d="M -614.3967 -551.0294 L -471.5812 -551.0294 C -454.68816 -551.0294 -440.97787 -544.928 -440.97787 -537.4101 C -440.97787 -529.8923 -454.68816 -523.79085 -471.5812 -523.79085 L -614.3967 -523.79085 C -631.2897 -523.79085 -645 -529.8923 -645 -537.4101 C -645 -544.928 -631.2897 -551.0294 -614.3967 -551.0294" fill="black"/>
      <path d="M -614.3967 -551.0294 L -471.5812 -551.0294 C -454.68816 -551.0294 -440.97787 -544.928 -440.97787 -537.4101 C -440.97787 -529.8923 -454.68816 -523.79085 -471.5812 -523.79085 L -614.3967 -523.79085 C -631.2897 -523.79085 -645 -529.8923 -645 -537.4101 C -645 -544.928 -631.2897 -551.0294 -614.3967 -551.0294" stroke="black" stroke-linecap="round" stroke-linejoin="round" stroke-width="1"/>
      <path d="M -375.65874 -551.0294 L -232.84325 -551.0294 C -215.95022 -551.0294 -202.23993 -544.928 -202.23993 -537.4101 C -202.23993 -529.8923 -215.95022 -523.79085 -232.84325 -523.79085 L -375.65874 -523.79085 C -392.55178 -523.79085 -406.26206 -529.8923 -406.26206 -537.4101 C -406.26206 -544.928 -392.55178 -551.0294 -375.65874 -551.0294" fill="#797979"/>
      <path d="M -375.65874 -551.0294 L -232.84325 -551.0294 C -215.95022 -551.0294 -202.23993 -544.928 -202.23993 -537.4101 C -202.23993 -529.8923 -215.95022 -523.79085 -232.84325 -523.79085 L -375.65874 -523.79085 C -392.55178 -523.79085 -406.26206 -529.8923 -406.26206 -537.4101 C -406.26206 -544.928 -392.55178 -551.0294 -375.65874 -551.0294" stroke="#aaa" stroke-linecap="round" stroke-linejoin="round" stroke-width="1"/>
      <path d="M -571.13544 -626.793 L -428.31995 -626.793 C -411.4269 -626.793 -397.71663 -620.6916 -397.71663 -613.17374 C -397.71663 -605.6559 -411.4269 -599.5545 -428.31995 -599.5545 L -571.13544 -599.5545 C -588.0285 -599.5545 -601.73876 -605.6559 -601.73876 -613.17374 C -601.73876 -620.6916 -588.0285 -626.793 -571.13544 -626.793" fill="black"/>
      <path d="M -571.13544 -626.793 L -428.31995 -626.793 C -411.4269 -626.793 -397.71663 -620.6916 -397.71663 -613.17374 C -397.71663 -605.6559 -411.4269 -599.5545 -428.31995 -599.5545 L -571.13544 -599.5545 C -588.0285 -599.5545 -601.73876 -605.6559 -601.73876 -613.17374 C -601.73876 -620.6916 -588.0285 -626.793 -571.13544 -626.793" stroke="black" stroke-linecap="round" stroke-linejoin="round" stroke-width="1"/>
      <path d="M -323.85208 -626.793 L -181.03659 -626.793 C -164.14355 -626.793 -150.43327 -620.6916 -150.43327 -613.17374 C -150.43327 -605.6559 -164.14355 -599.5545 -181.03659 -599.5545 L -323.85208 -599.5545 C -340.7451 -599.5545 -354.4554 -605.6559 -354.4554 -613.17374 C -354.4554 -620.6916 -340.7451 -626.793 -323.85208 -626.793" fill="#797979"/>
      <path d="M -323.85208 -626.793 L -181.03659 -626.793 C -164.14355 -626.793 -150.43327 -620.6916 -150.43327 -613.17374 C -150.43327 -605.6559 -164.14355 -599.5545 -181.03659 -599.5545 L -323.85208 -599.5545 C -340.7451 -599.5545 -354.4554 -605.6559 -354.4554 -613.17374 C -354.4554 -620.6916 -340.7451 -626.793 -323.85208 -626.793" stroke="#aaa" stroke-linecap="round" stroke-linejoin="round" stroke-width="1"/>
      <path d="M -513.4538 -704.5566 L -370.6383 -704.5566 C -353.74527 -704.5566 -340.035 -698.4552 -340.035 -690.9374 C -340.035 -683.4195 -353.74527 -677.3181 -370.6383 -677.3181 L -513.4538 -677.3181 C -530.3468 -677.3181 -544.0571 -683.4195 -544.0571 -690.9374 C -544.0571 -698.4552 -530.3468 -704.5566 -513.4538 -704.5566" fill="black"/>
      <path d="M -513.4538 -704.5566 L -370.6383 -704.5566 C -353.74527 -704.5566 -340.035 -698.4552 -340.035 -690.9374 C -340.035 -683.4195 -353.74527 -677.3181 -370.6383 -677.3181 L -513.4538 -677.3181 C -530.3468 -677.3181 -544.0571 -683.4195 -544.0571 -690.9374 C -544.0571 -698.4552 -530.3468 -704.5566 -513.4538 -704.5566" stroke="black" stroke-linecap="round" stroke-linejoin="round" stroke-width="1"/>
      <path d="M -265.10225 -704.5566 L -122.28676 -704.5566 C -105.39373 -704.5566 -91.68344 -698.4552 -91.68344 -690.9374 C -91.68344 -683.4195 -105.39373 -677.3181 -122.28676 -677.3181 L -265.10225 -677.3181 C -281.99528 -677.3181 -295.70557 -683.4195 -295.70557 -690.9374 C -295.70557 -698.4552 -281.99528 -704.5566 -265.10225 -704.5566" fill="#797979"/>
      <path d="M -265.10225 -704.5566 L -122.28676 -704.5566 C -105.39373 -704.5566 -91.68344 -698.4552 -91.68344 -690.9374 C -91.68344 -683.4195 -105.39373 -677.3181 -122.28676 -677.3181 L -265.10225 -677.3181 C -281.99528 -677.3181 -295.70557 -683.4195 -295.70557 -690.9374 C -295.70557 -698.4552 -281.99528 -704.5566 -265.10225 -704.5566" stroke="#aaa" stroke-linecap="round" stroke-linejoin="round" stroke-width="1"/>
      <path d="M -375.65874 -783.3203 L -232.84325 -783.3203 C -215.95022 -783.3203 -202.23993 -777.2188 -202.23993 -769.701 C -202.23993 -762.1831 -215.95022 -756.0817 -232.84325 -756.0817 L -375.65874 -756.0817 C -392.55178 -756.0817 -406.26206 -762.1831 -406.26206 -769.701 C -406.26206 -777.2188 -392.55178 -783.3203 -375.65874 -783.3203" fill="black"/>
      <path d="M -375.65874 -783.3203 L -232.84325 -783.3203 C -215.95022 -783.3203 -202.23993 -777.2188 -202.23993 -769.701 C -202.23993 -762.1831 -215.95022 -756.0817 -232.84325 -756.0817 L -375.65874 -756.0817 C -392.55178 -756.0817 -406.26206 -762.1831 -406.26206 -769.701 C -406.26206 -777.2188 -392.55178 -783.3203 -375.65874 -783.3203" stroke="black" stroke-linecap="round" stroke-linejoin="round" stroke-width="1"/>
      <path d="M -323.85208 -857 L -181.03659 -857 C -164.14355 -857 -150.43327 -850.8986 -150.43327 -843.3807 C -150.43327 -835.8629 -164.14355 -829.7614 -181.03659 -829.7614 L -323.85208 -829.7614 C -340.7451 -829.7614 -354.4554 -835.8629 -354.4554 -843.3807 C -354.4554 -850.8986 -340.7451 -857 -323.85208 -857" fill="black"/>
      <path d="M -323.85208 -857 L -181.03659 -857 C -164.14355 -857 -150.43327 -850.8986 -150.43327 -843.3807 C -150.43327 -835.8629 -164.14355 -829.7614 -181.03659 -829.7614 L -323.85208 -829.7614 C -340.7451 -829.7614 -354.4554 -835.8629 -354.4554 -843.3807 C -354.4554 -850.8986 -340.7451 -857 -323.85208 -857" stroke="black" stroke-linecap="round" stroke-linejoin="round" stroke-width="1"/>
    </g>
  </g>
</svg>
