<?xml version="1.0" encoding="utf-8"?>
<!-- Generator: Adobe Illustrator 21.0.0, SVG Export Plug-In . SVG Version: 6.00 Build 0)  -->
<svg version="1.1" id="svg" xmlns="http://www.w3.org/2000/svg" xmlns:xlink="http://www.w3.org/1999/xlink" x="0px" y="0px"
	 viewBox="0 0 389.4 385.5" style="enable-background:new 0 0 389.4 385.5;" xml:space="preserve">
<style type="text/css">
	.st0{fill:#FFFFFF;}
	.st1{fill:#FF5B00;}
	.st2{fill:#FF8E00;}
	.st3{fill:#FF9844;}
	.st4{fill:#FFC48B;}
</style>
<g id="svgg">
	<path id="path1" class="st0" d="M122.6,15.3c-0.8,0.4-3.2,1.6-5.5,2.6c-3.8,1.7-13.7,7.7-13.7,8.4c0,0.1,1-0.4,2.3-1.2
		c1.3-0.8,6.3-3.5,11.1-6s8.4-4.5,7.9-4.5C124.3,14.6,123.4,14.9,122.6,15.3 M92.7,45.7c6.2,8,6,6.7,1.4,10.6
		c-4.9,4.1-3.1,5.1-14.7-7.9c-2.2-2.4-2.2-2.4,3.2-6.8C87,37.8,86.5,37.6,92.7,45.7 M70,42.7c0,0.5-0.3,0.7-0.6,0.5
		c-0.5-0.3-3.7,2.8-3.8,3.7c-0.1,1,1.2,0.2,3.1-1.8c2.3-2.5,2.7-3.2,1.8-3.2C70.3,41.9,70,42.3,70,42.7 M143.5,45.4
		c0,0.3,0.5,1.5,1.1,2.7c0.6,1.2,0.9,1.6,0.7,0.8C144.9,47.5,143.5,44.6,143.5,45.4 M115.9,54.5c5.1,7.8,6,9.9,4.5,9.9
		c-1.1,0-12.1-17.1-11.5-17.9C110,45.3,110,45.3,115.9,54.5 M113.4,56.5l5.9,8.6l-1.2,0.9c-0.7,0.5-1.3,0.9-1.5,0.9
		s-3.1-3.9-6.5-8.6l-6.2-8.6l1.3-1C107.2,47.4,107.2,47.4,113.4,56.5 M109.2,59c7.1,9.9,6.6,8.9,4.9,10l-1.4,0.9l-6.3-8.2
		c-3.5-4.5-6.3-8.3-6.3-8.5c0-0.4,2.3-2.4,2.8-2.4C103.1,50.7,105.9,54.4,109.2,59 M74.8,54.8c-0.6,0.6,0.7,3,1.6,3
		c0.4,0,0.7-0.2,0.7-0.5C77.1,56.5,75.2,54.4,74.8,54.8 M75.4,61.8c5.2,5.3,6.6,7.5,4.6,7.5c-1.5,0-13.5-12.5-12.8-13.3
		C68.2,54.7,68.8,55.1,75.4,61.8 M79,58.5c0.5,0.7,0.7,1.4,0.6,1.5c-0.1,0.1,0.2,0.2,0.8,0.2c1,0,0.9-0.2-0.4-1.5
		C78.2,56.9,77.9,56.8,79,58.5 M60.8,61.9c-0.7,0.5-1.8,1.8-2.6,2.9c-0.7,1.1-2,2.9-2.8,3.9c-0.8,1.1-1.1,1.5-0.6,1.1
		c1.2-1.1,7.7-8.8,7.4-8.8C62.1,61.1,61.5,61.4,60.8,61.9 M27,102.5c-0.5,1.9,0,2.3,0.8,0.8c0.4-0.8,0.5-1.4,0.1-1.7
		C27.6,101.2,27.3,101.5,27,102.5 M41.7,109.3c8.1,3.9,8.4,4.1,7.6,5.4c-0.4,0.6-14.6-5.2-17-6.8c-0.3-0.2,0.5-2.4,1-2.4
		C33.5,105.4,37.3,107.2,41.7,109.3 M42.8,113.8c5.7,2.7,7.4,4,2.2,1.7c-1.7-0.8-5.4-2.4-8.2-3.6c-2.8-1.2-5.1-2.4-5.1-2.7
		C31.6,108.8,34,109.7,42.8,113.8 M57.5,120.5c3.8,1.7,6.9,3.3,6.8,3.4c-0.2,0.2-14.5-6.1-15-6.7C48.7,116.6,49.7,117,57.5,120.5
		 M142,125.9l-2.7,2.9l2.9-2.7c1.6-1.5,2.9-2.8,2.9-2.9C145.1,122.7,144.6,123.2,142,125.9 M261,125.7c1.2,1.2,2.3,2.2,2.4,2.2
		c0.1,0-0.7-1-1.9-2.2c-1.2-1.2-2.3-2.2-2.4-2.2C258.9,123.5,259.8,124.5,261,125.7 M29.3,143.6c4.4,1.1,8.3,2.2,8.6,2.5
		c0.4,0.4,0.3,0.5-0.3,0.3c-0.5-0.2-4.5-1.1-8.9-2.1c-4.4-1-8.1-2-8.1-2.3C20.7,141.4,20.4,141.4,29.3,143.6 M50.6,149.1
		c-0.4,0.4-11.2-2.3-11-2.7c0.1-0.2,2.7,0.2,5.7,1C48.3,148.3,50.7,149,50.6,149.1 M16.5,214.3c0.1,0.8-1.2,1.1-8,2.1
		C4,217.1,0.2,217.8,0,218c-0.9,0.9,0.9,0.8,8.1-0.4c8.5-1.4,8.7-1.4,8.7,0.4c0,1.7,2.4,12.1,4.4,19.2c0.9,3.3,1.6,6,1.5,6.1
		c-0.4,0.3-15.4,5.2-15.6,5.1c-0.5-0.5-4.6-16.5-5.7-21.9C0.7,222.9,0,220-0.3,220c-0.6,0-0.5,3.4,0.1,5.3c0.3,0.9,0.6,2.5,0.7,3.5
		c0.1,1.1,1,4.4,1.9,7.4c0.9,3,1.9,6.5,2.1,7.7c0.2,1.2,0.7,2.7,1.1,3.3c0.4,0.6,1.4,3.3,2.2,6c1.5,4.9,7.2,18.8,9.1,21.9
		c0.5,0.9,1.2,2.3,1.4,3c0.5,1.8,11.1,19.6,12.6,21.4c0.7,0.8,2.5,3.3,4,5.6c2.5,3.8,4.5,5.7,4.5,4.3c0-0.6,12.2-9.9,12.9-9.8
		c1.3,0.1,5.3,6.1,4.5,6.8c-0.4,0.4-3.3,2.8-6.4,5.4c-3.1,2.6-5.4,4.8-5.1,5c0.5,0.3,6.3-4.2,11.9-9.2c0.7-0.6,1.2-0.9,1.2-0.5
		c0,0.5-7.5,7.2-11.1,9.9c-1,0.8-1.4,1.3-1,1.6c0.3,0.2,1,0,1.5-0.4c1.4-1.2,9-7.6,10.4-8.9c0.7-0.6,1.2-0.8,1.2-0.6
		c0,0.6-11.1,10.4-12.2,10.8c-0.6,0.2-0.5,0.5,0.1,1.6c1.4,2.4,6,6.9,6.7,6.7c0.5-0.2-0.5-1.5-2.6-3.6l-3.3-3.3l3.3-3
		c1.8-1.7,4.6-4.1,6.2-5.5l2.9-2.5l3,3.1c1.6,1.7,3.1,2.8,3.3,2.5c0.2-0.3-0.9-1.8-2.4-3.4c-23.1-24.2-41.4-61.1-46.8-94.2
		C17.4,214,16.3,211.5,16.5,214.3 M24,246c1,2.6,0.7,2.8-7,5.6l-7.5,2.8l-0.7-1.6c-1.2-2.8-0.8-3.2,6.5-5.7
		C23.4,244.2,23.3,244.3,24,246 M26.2,252.1c0.8,2.4,1.6,1.8-6.7,5.1c-8.1,3.2-7.9,3.2-8.6,1.5c-1.2-3.1-1.3-3.1,6.3-5.9
		C25.7,249.6,25.4,249.6,26.2,252.1 M29.2,259.3c0.9,2,2.9,6.4,4.5,9.7c1.6,3.3,2.8,6.2,2.5,6.4c-0.6,0.6-13.4,7.6-13.8,7.6
		c-0.7,0-9.9-19.7-9.9-21.1c0-0.6,13.1-6.2,14.6-6.3C27.4,255.6,28.3,257.2,29.2,259.3 M38.2,277.5c0.5,0.9,0.1,1.3-3.4,3.4
		c-2.2,1.3-5.4,3.1-7.2,4.2c-3.1,1.9-4.6,1.7-4.7-0.4c0-0.3,13.6-8.1,14.3-8.1C37.5,276.4,37.9,276.9,38.2,277.5 M42.4,284.7
		c1.5,2.5,4.2,6.5,5.9,8.8c1.7,2.4,3.1,4.4,3.1,4.5c0,0.4-12.6,9.6-13.1,9.6c-0.5,0-9.3-12.9-12.1-17.6l-1.2-2l5.4-3.1
		c3-1.7,6.1-3.6,7-4.1C39.4,279.5,39.1,279.3,42.4,284.7 M59.3,322.6L56,326l3.4-3.3c3.2-3,3.7-3.6,3.3-3.6
		C62.6,319.1,61.1,320.7,59.3,322.6 M78.4,326.4c0.1,0.4,1.9,2.1,4.1,3.9c4.8,3.9,4.9,2.9-0.7,10.2c-5.4,7-4.8,6.7-8.6,3.8
		c-1.6-1.2-2.6-1.9-2.2-1.5c0.4,0.4,0.7,1.2,0.7,1.7c0,0.5,0.3,1,0.7,1c0.4,0,1.2,0.4,1.8,1c6.1,5.6,15.6,12.2,17.3,12.2
		c1.2,0,0.3-1.1-1.9-2.4c-3.5-2-3.5-1.9,1.2-8.6c2.3-3.4,4.4-6.4,4.6-6.7c0.2-0.3,0.9-0.2,1.8,0.4c0.8,0.5,2,1.3,2.7,1.8
		c0.7,0.5,1.5,0.6,1.6,0.4s-2.1-2.1-5-4.1c-2.9-2-8.1-5.8-11.5-8.6C78.4,325.5,78.1,325.3,78.4,326.4 M87.7,335.7
		c-0.5,0.8-8.4,11.4-9,12.2c-0.3,0.3-0.6,0.4-0.8,0.2c-0.3-0.3,2.6-4.2,7.8-10.7C87.5,335.1,88.6,334.2,87.7,335.7 M91.5,337.4
		l1.5,1.2l-4.7,6.7l-4.7,6.7l-1.6-0.9c-2.8-1.6-2.7-1.8,2.2-8.5C89.4,335.6,89.3,335.6,91.5,337.4 M90.2,346
		c-4.2,6.1-5.9,8.2-5.3,6.6c0.4-1.2,8.9-13.2,9.4-13.2C94.5,339.4,92.7,342.4,90.2,346 M150.4,365.9c0.1,0-0.9,3.5-2,7.7
		c-1.2,4.2-2.2,7.7-2.2,7.8c0,0.4-2.2,0.1-2.5-0.4C142.2,378.7,148.5,364.4,150.4,365.9 M-3.4-10.2"/>
	<path id="path2" class="st1" d="M202.6,53v12.3l3.1,0.4c4,0.5,3.6,1.4,4.6-12.2c1-14,1.6-12.1-3.5-12.5l-4.2-0.4V53 M212.5,51.3
		c-0.4,5.5-0.8,11-1,12.3l-0.3,2.2l5.1,0.7c81.7,10.8,128.4,96.9,92.8,170.9c-18.8,38.9-54.8,63-100.6,67.2l-3.7,0.3v12.2v12.2
		l4.2-0.2c95.2-5.2,159.3-98.8,129.5-189.2C320.6,85.7,274,48.3,216,41.6l-2.8-0.3L212.5,51.3 M187.3,68.5
		C107,78.4,60.3,166,97,238.2c43.8,86.4,168,85.5,210.3-1.5C348,153.1,279.5,57.1,187.3,68.5 M218.6,102.1c7,1.5,12.6,3.3,12.3,3.9
		c-0.2,0.3,0.1,0.4,0.7,0.2c2.6-0.7,19.4,9.2,26.6,15.6c9.7,8.7,22.3,27.2,22.5,33c0,0.8,0.2,1.3,0.4,1.2c0.5-0.3,2.8,7.3,4.1,13.5
		c1.4,6.6,1.4,24.6,0,31.2c-1.3,6.2-3.6,13.8-4.1,13.5c-0.2-0.1-0.4,0.4-0.4,1.2c-0.2,5.8-12.8,24.4-22.5,33
		c-7.2,6.4-24,16.3-26.6,15.6c-0.5-0.1-0.8,0-0.7,0.2c0.2,0.3-1.4,1-3.4,1.6c-24.8,7.7-51.6,3.8-73.1-10.6
		c-49.6-33.3-49.8-106.8-0.3-140.1C173,102.5,197.2,97.5,218.6,102.1 M108.1,277.8l-8.8,8.4l2.2,2.3c22.2,23.1,58.7,38.7,95.3,40.8
		l6.5,0.4l-0.4-5.4c-0.2-3-0.4-8.5-0.4-12.3l0-6.9l-8.9-0.7c-27.7-2.1-53.5-13.1-72.6-31l-4.3-4L108.1,277.8"/>
	<path id="path3" class="st2" d="M139.8,55c-3.1,1.5-7.9,4-10.8,5.7l-5.2,3.1l6.6,10.1c3.6,5.6,6.9,10.1,7.2,10.1
		c0.3,0,1.9-0.8,3.6-1.9c1.7-1,5.4-3,8.2-4.4c2.8-1.4,5.3-2.6,5.4-2.7c0.3-0.3-8.5-21.8-9.1-22.3C145.5,52.5,142.8,53.6,139.8,55
		 M121.9,66.1c1.5,2.5,13,19.1,13.4,19.3c0.3,0.2-2.5-4.3-6.1-9.8c-3.7-5.6-6.9-10.2-7.1-10.2C121.7,65.4,121.6,65.8,121.9,66.1
		 M118.6,67.3c-0.9,0.6-0.4,1.5,6,10.2c8.2,11.2,7.5,10.4,8.3,9.9c0.5-0.3-11.1-18.7-13.1-20.6C119.7,66.7,119.2,66.9,118.6,67.3
		 M115,70.1c-0.8,0.9-0.7,1,9.7,14.2c3.7,4.8,5.5,6.2,5.3,4.4c-0.1-0.6-11.8-16.9-13.4-18.5C115.8,69.3,115.6,69.3,115,70.1
		 M108.2,75.6l-4.2,3.6l2,2.3c1.1,1.3,4.9,5.3,8.3,9l6.3,6.7l1.4-1.1c0.8-0.6,2.4-1.9,3.5-2.9l2.1-1.8l-7-9c-3.8-5-7.3-9.3-7.6-9.7
		C112.5,72.1,111.6,72.7,108.2,75.6 M97.3,85.8c-8.5,9.3-14.2,16.9-19.9,26.5c-3,5-5.3,9.6-5.1,9.8c0.1,0.1,5.1,2.5,11.1,5.4l11,5.2
		l2.3-4.3c4.8-9,11.5-18.2,18.6-25.7l3.9-4.1l-8.2-8.8c-4.5-4.8-8.4-8.8-8.6-8.9C102.1,80.8,99.9,83,97.3,85.8 M70.7,124.9
		c-0.5,1.2-0.4,1.3,11.3,6.4c7.4,3.2,10.8,4.5,11.1,4c0.6-0.9,0.7-0.8-10.9-6.3C70.4,123.5,71.2,123.8,70.7,124.9 M66.3,136
		c-13.6,38.6-11.4,77,6.5,113.3c5.8,11.7,16.4,27.1,23.2,33.6l1.9,1.9l8.7-8.4l8.7-8.4l-2.4-2.7c-29.5-33.5-38.4-78.3-23.8-119.8
		c1.2-3.4,2.1-6.2,2-6.3c-0.3-0.3-21.7-9.5-22.1-9.5C68.8,129.6,67.6,132.4,66.3,136 M108.1,277.6l-2.7,2.9l2.9-2.7
		c1.6-1.5,2.9-2.8,2.9-2.9C111.1,274.5,110.6,275,108.1,277.6 M197,304.7c0.7,0.1,1.8,0.1,2.5,0c0.7-0.1,0.1-0.2-1.2-0.2
		S196.3,304.6,197,304.7 M205.5,304.7c0.5,0.1,1.4,0.1,1.9,0c0.5-0.1,0.1-0.2-1-0.2C205.4,304.5,205,304.6,205.5,304.7 M202.8,318
		c0,2.6,0.1,3.6,0.2,2.3c0.1-1.3,0.1-3.4,0-4.7C202.9,314.4,202.8,315.5,202.8,318"/>
	<path id="path4" class="st3" d="M221.1,8.3c-1,9.7-1,9.4,1.4,9.5c1,0,4.2,0.5,7.3,1l5.5,1l1.8-8.4c1-4.6,1.6-8.6,1.5-8.7
		c-0.2-0.2-8.2-1.7-14.4-2.6L222-0.3L221.1,8.3 M241,3.2c0,0.2-0.7,3.8-1.6,8c-0.9,4.2-1.6,8-1.6,8.4c0,0.8,5.5,2.3,6,1.6
		c0.3-0.4,4.4-15.4,4.4-16.2c0-0.3-1.5-0.8-5.6-1.8C241.6,3,241,3,241,3.2 M249,10.8c-0.8,3.1-1.9,6.8-2.3,8.3
		c-0.9,3.3-1.4,2.9,6.6,5.4c12.5,3.9,25.6,9.9,37,16.9L296,45l4.3-6.4c2.4-3.5,4.6-6.7,5-7.1c0.6-0.7,0.2-1.1-2.6-2.9
		c-1.9-1.2-3.6-2.5-3.8-2.8c-0.2-0.3-0.4-0.4-0.4-0.2c0,0.2-1.3-0.4-2.9-1.4c-9.2-5.9-40.4-19-45-19C250.5,5.2,249.8,7.7,249,10.8
		 M215,19.3c-0.2,0.3-0.6,4.1-0.9,8.4c-0.3,4.3-0.7,8.8-0.8,9.9l-0.2,2l3.6,0.4c50,4.9,94.5,36.3,116.5,82.1c1.9,4,3.5,7.6,3.5,8
		c0,0.9,18.3-5.4,19.6-6.7c0.6-0.6-7.4-16.9-11.8-24.3c-26-43.2-74.3-74.3-123.1-79.3c-1.8-0.2-3.9-0.5-4.7-0.6
		C216,18.9,215.2,19,215,19.3 M302.7,39.2c-4.5,6.7-4.8,7.2-3.8,7.9c0.6,0.4,2.3,1.7,4,2.9l3,2.2l5.4-6.8c3-3.7,5.4-6.9,5.4-7
		c0-0.2-8.5-6.4-8.8-6.4C307.6,32,305.3,35.2,302.7,39.2 M313.1,46.7l-5.4,6.8l2.2,1.9c1.2,1,4.3,3.9,7,6.3l4.8,4.4l6.1-6.1l6.1-6.1
		l-5-4.8c-2.7-2.6-6.2-5.8-7.7-7l-2.7-2.3L313.1,46.7 M109.3,46.6c-0.2,0.2,2.2,4,5.2,8.5c7,10.3,7.7,10.2,0.9-0.2
		C109.6,46,109.8,46.1,109.3,46.6 M105.5,49.2c-0.8,0.6,9.8,16.8,11,16.8c2.1,0,1.5-1.3-3.8-9.2c-3.1-4.6-5.8-8.3-6-8.3
		C106.6,48.5,106,48.8,105.5,49.2 M101.6,52.2c-0.9,1-0.7,1.3,5,8.7c5.7,7.5,7,8.6,7.6,7c0.2-0.6-10.9-16.8-11.5-16.8
		C102.6,51.2,102.1,51.7,101.6,52.2 M94.9,57.3c-4.1,3.5-4.4,2.5,3.2,11.1l6.5,7.3l3.2-2.5c1.7-1.4,3.1-2.7,3.1-3
		c-0.2-0.7-12-15.8-12.4-15.7C98.4,54.5,96.7,55.8,94.9,57.3 M89,62.5c-0.4,0.4,1.2,2.2,8.8,10.2c2.5,2.7,4.7,4.7,4.9,4.5
		c0.2-0.2-12.8-15.2-13.2-15.2C89.4,62.2,89.2,62.3,89,62.5 M81.6,70.1c0.2,1,14.2,14.1,14.6,13.7c0.3-0.3-13.7-14.5-14.3-14.5
		C81.6,69.3,81.5,69.6,81.6,70.1 M76.5,75.4c-6.3,7.2-14.9,19-17.3,23.7c-0.5,1.1,0,1.5,7.5,5.9c10.2,6,9.5,5.8,10.9,3.2
		c2.1-3.7,9.2-13.4,13.2-18l3.9-4.5l-5.1-4.9C78.8,70.6,80.2,71.1,76.5,75.4 M104,79.9c0,0.1,0.8,0.9,1.8,1.8l1.8,1.6l-1.6-1.8
		C104.4,79.8,104,79.4,104,79.9 M113,89.6c1.2,1.2,2.3,2.2,2.4,2.2c0.2,0-0.7-1-1.9-2.2c-1.2-1.2-2.3-2.2-2.4-2.2
		S111.8,88.3,113,89.6 M115.5,102.6l-3.5,3.7l3.7-3.5c2-2,3.7-3.6,3.7-3.7C119.3,98.6,118.8,99.1,115.5,102.6 M57,102.8
		c-0.3,0.4-1.2,2-2,3.5l-1.4,2.9l8.8,4.4c4.8,2.4,9,4.4,9.2,4.4c0.4,0,3.6-5.5,3.3-5.7c-0.1-0.1-15.3-9-17-9.9
		C57.7,102.3,57.3,102.5,57,102.8 M52.2,111.5c-0.2,0.3-0.2,0.6-0.1,0.8c0.7,0.7,18.6,8.9,18.4,8.4
		C70.1,119.8,52.5,110.9,52.2,111.5 M50.8,114.9c0,0.8,17.2,8.8,18.2,8.4c0.5-0.2-17.2-9.2-18-9.2C50.9,114.2,50.8,114.5,50.8,114.9
		 M367.5,121.2c-4.4,1.7-8,3.1-8.1,3.1c-0.1,0,0.7,2.6,1.8,5.8c2.3,6.7,5.4,18.4,6.3,23.7c0.3,2,0.9,3.7,1.1,3.7
		c0.7,0,14.2-2.1,15.7-2.5c1.2-0.3,1.3-0.5,0.9-2.3c-1.7-9.4-6.4-26.6-8.9-32.3l-1-2.3L367.5,121.2 M348.4,128.5
		c-4.4,1.8-8.5,3.5-9.1,3.8l-1.2,0.5l1.7,4.5c2.2,6,4.7,15.7,6,23.4c0.6,3.4,1.1,6.3,1.2,6.4c0.1,0.1,4.7-0.4,10.2-1l10.1-1.1
		l-0.4-3.3c-1.1-10.4-8.1-35.8-9.9-36.2C356.6,125.3,352.7,126.7,348.4,128.5 M138.5,128.9 M136.6,130.9l2.1-1.9 M39.1,149.1
		c-6.5,22.5-5,57.7,3.5,85.4c7.2,23.3,23.2,50.9,37.4,64.2l1.8,1.7l7.3-7l7.3-7l-3.8-4.3c-29.1-32.8-42.4-78.3-35.1-120.4
		c0.8-4.8,1.4-8.8,1.3-8.8c-0.1-0.1-4.1-1.1-8.9-2.2c-4.8-1.1-9.2-2.1-9.7-2.3C39.8,148.2,39.3,148.5,39.1,149.1 M378.8,167.5
		c-4.5,0.5-8.4,0.9-8.7,1c-0.3,0-0.3,1.4-0.1,3.1c4.3,34.8-8.9,82-31.5,112.6c-1.8,2.4-3.3,4.5-3.3,4.6c0,0.9,13.4,10.7,13.9,10.2
		c9.2-7.7,27.2-44.2,33.1-67.1c4.9-19.2,7.8-54.3,5.2-63.6l-0.5-1.6L378.8,167.5 M355.6,168.1c-7.7,1-8.9,1.2-8.6,2
		c0.2,0.5,0.5,5.2,0.6,10.5c2,61.6-35,117.7-92.7,140.6c-3.6,1.4-6.7,2.7-6.8,2.8c-0.2,0.2,5.9,18.9,6.2,19.3
		c1,1.2,24.5-9.7,35-16.3c53.1-32.9,84.8-95.9,78.4-155.8C367.4,166.1,368.8,166.4,355.6,168.1 M82.3,184.3c0,3.5,0.1,4.9,0.2,3.2
		c0.1-1.7,0.1-4.6,0-6.3C82.4,179.5,82.3,180.9,82.3,184.3 M109.5,261.2c0,0.1,0.8,0.9,1.8,1.8l1.8,1.6l-1.6-1.8
		C109.9,261.2,109.5,260.8,109.5,261.2 M292.2,262.8l-1.6,1.8l1.8-1.6c1-0.9,1.8-1.7,1.8-1.8C294.1,260.8,293.7,261.2,292.2,262.8
		 M286.2,269.4l-3.8,4l4-3.8c2.2-2.1,4-3.9,4-4C290.3,265.2,289.7,265.7,286.2,269.4 M113.5,272.2l-2.7,2.9l2.9-2.7
		c1.6-1.5,2.9-2.8,2.9-2.9C116.6,269,116.1,269.5,113.5,272.2 M119.3,271.6c1.3,1.4,2.5,2.6,2.6,2.6c0.4,0,0-0.5-2.4-2.8l-2.6-2.4
		L119.3,271.6 M106.4,276.5l-4.9,5.1l5.1-4.9c4.7-4.6,5.3-5.2,4.9-5.2C111.4,271.5,109.1,273.8,106.4,276.5 M122.6,274.4
		c0,0.1,0.8,0.9,1.8,1.8l1.8,1.6l-1.6-1.8C123.1,274.3,122.6,274,122.6,274.4 M102.3,282.8l-3.5,3.7l3.7-3.5c2-2,3.7-3.6,3.7-3.7
		C106.2,278.9,105.6,279.4,102.3,282.8 M306.7,283.9l-1.9,2.1l2.1-1.9c1.9-1.8,2.3-2.2,1.9-2.2C308.7,281.9,307.7,282.8,306.7,283.9
		 M101.8,289.2c0,0.1,0.8,0.9,1.8,1.8l1.8,1.6l-1.6-1.8C102.2,289.1,101.8,288.8,101.8,289.2 M299.8,290.8l-1.6,1.8l1.8-1.6
		c1-0.9,1.8-1.7,1.8-1.8C301.8,288.8,301.3,289.1,299.8,290.8 M93.7,298.1l-7.1,7.5l3.6,3.2c5.1,4.6,11.6,9.8,17.2,13.6l4.8,3.3
		l3.6-5.7c2-3.1,4.4-7.1,5.5-8.7l1.9-3l-4.5-3.1c-5.4-3.7-11.8-8.8-15.2-12.1l-2.5-2.4L93.7,298.1 M211,304.2c0.5,0.1,1.4,0.1,1.9,0
		c0.5-0.1,0.1-0.2-1-0.2C210.9,303.9,210.4,304,211,304.2 M201.4,304.7c1.1,0.2,1.2,0.6,1.4,4.6l0.2,4.3l0-4.5
		c0-4.4-0.1-4.5-1.4-4.6C200.3,304.5,200.3,304.5,201.4,304.7 M85.8,309.2c-0.1,0.3-2.7,3.1-5.8,6.3l-5.6,5.8l6.1,5.3
		c5.9,5.1,15.1,11.9,19.1,14.4l1.9,1.2l3.3-5.3c1.8-2.9,3.8-6.2,4.5-7.3l1.3-2.1l-4-2.7c-5.3-3.6-13.1-9.7-17-13.2
		C86.4,308.6,86.1,308.4,85.8,309.2 M119.9,316.8c-2.6,4.1-5,8-5.3,8.7c-1.9,3.5,31,17.9,50.8,22.3c9.1,2,16.5,3,27.6,3.7
		c10.5,0.7,11.1,0.6,10.5-2c-0.2-0.6-0.3-4.9-0.3-9.6l0-8.5l-7.5-0.3c-24.4-1.1-46.2-7.5-67.1-19.6c-2-1.2-3.7-2.1-3.8-2.1
		C124.6,309.3,122.4,312.7,119.9,316.8 M247.9,334.3c1.6,5.3,2.9,9.8,2.9,9.9c0,0.1,0.4,0.2,0.8,0.2c1.1,0,1.2,0.5-2.3-10.2
		C245.2,321.3,244,321.5,247.9,334.3 M193.7,329.4c0.7,0.1,1.7,0.1,2.2,0c0.5-0.1,0-0.2-1.2-0.2C193.5,329.1,193,329.3,193.7,329.4
		 M208.2,329.4c0.8,0.1,2.1,0.1,2.7,0c0.7-0.1,0-0.2-1.5-0.2S207.4,329.3,208.2,329.4 M124.3,344.5c-4.1,8.3-4.2,8.6-3.2,8.6
		c0.7,0,7.6-14,7.6-15.3C128.6,336.2,127.5,338,124.3,344.5 M127.4,346.6c-2,4.3-3.6,7.8-3.5,7.9c3.9,2.8,34.2,12.5,42,13.5
		c1.2,0.2,5.3-15.9,4.3-16.8c-0.1-0.1-3.1-0.8-6.7-1.6c-7.4-1.7-20.9-6-27.3-8.8c-2.4-1-4.5-1.9-4.7-1.9S129.4,342.4,127.4,346.6
		 M171.7,356.4c-0.5,2.7-1.2,6.7-1.6,8.8c-0.4,2.1-0.5,3.7-0.3,3.6c0.2-0.1,1.2,0,2.3,0.3c2,0.6,6.1,1.1,15.6,1.9
		c10.6,0.9,14.5,1,15.4,0.2c1-0.9,1-16.7,0-16.9c-0.3,0-4.5-0.3-9.3-0.6c-8.4-0.5-17.3-1.4-19.8-2
		C172.7,351.4,172.5,351.7,171.7,356.4"/>
	<path id="path5" class="st4" d="M52.2,2.1c-0.6,0.4-0.9,0.9-0.8,1.1C51.5,3.3,52.3,3,53,2.4C54.6,1.2,53.8,0.9,52.2,2.1
		 M125.9,14.7c-1.7,0.7-6.6,3.1-11,5.4c-4.4,2.3-8.2,4-8.4,3.8c-0.2-0.2-0.3-0.1-0.1,0.2c0.2,0.3-1,1.3-2.7,2.2
		c-3.8,2-3.9,1.5,1.9,10.3l4.9,7.5l4.6-2.8c3.7-2.3,19.5-10.4,21.4-11c0.7-0.2-6.2-16.9-6.9-16.8C129.2,13.4,127.5,14,125.9,14.7
		 M98,30.1c-0.6,0.8,8.7,15.6,9.8,15.6c1.9,0,1.3-1.6-3.4-8.8C99.2,29,99,28.8,98,30.1 M94.3,32.6c-1,0.6-1.8,1.2-1.8,1.4
		c0,0.7,10.6,14.5,11.1,14.4c1.2,0,2.7-1.6,2.4-2.4c-0.3-0.8-9.7-14.6-9.9-14.6C96.1,31.5,95.2,32,94.3,32.6 M131.7,33.7
		c-5.5,2.4-17,8.8-19.1,10.6l-1.4,1.2l5.7,8.6c3.1,4.7,5.8,8.6,5.9,8.6s2.3-1.3,4.8-2.8c2.5-1.5,7.6-4.2,11.3-6l6.7-3.2l-2.2-5.4
		c-1.2-2.9-2.5-6.1-2.9-7c-0.4-0.9-1.2-2.8-1.8-4.2C137.5,30.9,137.8,31,131.7,33.7 M91.2,35.5c1.4,2.3,10.3,14,10.5,13.8
		c0.3-0.3-9.9-14.5-10.5-14.5C91,34.8,91,35.1,91.2,35.5 M88.7,36.5c-1,1-1,0.9,4.6,8.2c4.8,6.2,7.1,8.1,7.1,6
		c0-0.8-10.1-14.8-10.7-14.8C89.5,35.9,89.1,36.1,88.7,36.5 M82.6,41.5c-5.4,4.5-5.4,4.4-3.2,6.8c11.6,13,9.8,12,14.7,7.9
		c4.6-3.9,4.8-2.5-1.4-10.6C86.5,37.6,87,37.8,82.6,41.5 M109,46.5c-0.6,0.8,10.4,17.9,11.5,17.9c1.5,0,0.6-2-4.5-9.9
		C110,45.3,110,45.3,109,46.5 M75.4,47.7c-0.9,1-0.6,1.4,5.5,7.8c5.7,6,6.5,6.7,7.1,5.9c0.6-0.8,0.3-1.4-3-5.1
		C76,46.2,76.4,46.6,75.4,47.7 M112.8,56.7c5.3,7.9,5.9,9.3,3.8,9.2c-0.2,0-2.9-3.6-6.1-8.1c-5.8-8-6.3-9.3-3.7-9.4
		C107,48.5,109.7,52.2,112.8,56.7 M101.4,51.7c-1.7,1.4-2,0.8,5.1,9.9l6.3,8.2l1.4-0.9c0.7-0.5,1.3-1.1,1.2-1.3
		c-0.4-0.9-12.2-17-12.5-17C102.7,50.7,102.1,51.1,101.4,51.7 M69.5,54c0,0.5,3,3.6,6.6,7c3.6,3.4,6.6,6,6.6,5.7c0-0.3-3-3.4-6.6-7
		C72.4,56.1,69.5,53.5,69.5,54 M67.2,55.9C66.5,56.8,78.5,69.3,80,69.3c2,0,0.6-2.2-4.6-7.5C68.8,55.1,68.2,54.7,67.2,55.9
		 M60.4,63.4c-6.9,8-14.1,18-18,24.6l-1.5,2.6l6.7,4c3.7,2.2,7.3,4.3,8,4.7c1.2,0.7,1.3,0.6,3.2-2.4c5.2-8.3,10.8-15.8,17.4-23.4
		l2.7-3.1l-6.5-6.1c-3.6-3.4-6.7-6.2-6.9-6.3C65.4,57.8,63,60.3,60.4,63.4 M37.7,96.2c-1.3,2.4-2.2,4.5-2.1,4.6
		c0.5,0.4,15.8,8,16.2,8c0.2,0,1.3-1.7,2.5-3.8l2-3.8l-2-1.3c-3.6-2.3-13.6-8-13.9-8C40.1,91.7,39,93.7,37.7,96.2 M34,103
		c-0.5,1.2-0.2,1.4,8.5,5.5c7.7,3.6,8.8,3.9,8.9,1.9c0-0.4-15.7-8.2-16.5-8.2C34.6,102.2,34.2,102.5,34,103 M32.5,106.6
		c-0.2,0.6-0.3,1.2-0.2,1.3c2.3,1.6,16.6,7.4,17,6.8c0.8-1.3,0.6-1.5-7.6-5.4C32.7,105,32.9,105,32.5,106.6 M31.6,109.2
		c0,0.2,2.3,1.4,5.1,2.7c2.8,1.2,6.5,2.9,8.2,3.6c5.3,2.3,3.5,1-2.2-1.7C34,109.7,31.6,108.8,31.6,109.2 M30.6,110.8
		c0,0.2,1,0.9,2.3,1.4c1.3,0.6,3.4,1.5,4.8,2.1c1.4,0.6,3.3,1.4,4.4,1.9c1.1,0.5,2.5,1.1,3.3,1.4c0.8,0.3,1.6,0.7,1.9,0.9
		c0.4,0.2,0.4,0,0-0.4c-0.5-0.5-5.8-3-14.4-6.7C31.6,110.9,30.6,110.6,30.6,110.8 M137.6,130.2 M21.4,140.3
		c0.7,0.7,16.9,4.5,16.7,3.9c-0.1-0.3-0.6-0.7-1-0.7c-0.7-0.1-1.4-0.3-4.4-1c-1.8-0.5-2.9-0.7-6-1.6C23.7,140,20.8,139.7,21.4,140.3
		 M20.7,142c0,0.2,3.6,1.2,8.1,2.3c4.4,1,8.5,2,8.9,2.1c0.5,0.2,0.6,0.1,0.3-0.3C37,145.2,20.7,141.3,20.7,142 M19.6,145
		c-0.4,0.9-0.5,1.7-0.3,1.9c0.2,0.2,0.1,0.7-0.3,1.1c-0.3,0.4-0.5,1.1-0.3,1.5c0.2,0.4,0.1,1-0.2,1.2c-0.3,0.2-0.5,0.8-0.4,1.2
		c0.1,0.5,0,1.3-0.2,1.7c-1.8,4.6-3,22.9-2.6,40.8c0.8,39.6,24.3,94.3,51.1,119l1.3,1.2l2.4-2.4c1.3-1.3,2.6-2.4,2.8-2.5
		s2.1-1.8,4.2-4l3.8-3.9l-5.2-5.9c-34.3-38.7-48.5-91.3-38.7-143.1c1.1-5.9,1.7-5.3-8.4-7.6l-8.3-1.9L19.6,145 M7.8,217.6
		c-4.2,0.7-7.7,1.4-7.8,1.5c-0.8,0.8,6.8,29.6,7.7,29.2c0.3-0.1,3.8-1.3,7.7-2.6c3.9-1.3,7.2-2.4,7.3-2.5c0.1-0.1-0.6-2.7-1.5-5.9
		c-1.6-5.5-4.2-16.8-4.6-19.5C16.5,216.1,16.6,216.1,7.8,217.6 M15.2,247c-7.3,2.5-7.7,2.8-6.5,5.7l0.7,1.6l7.5-2.8
		c7.7-2.8,8-3,7-5.6C23.3,244.3,23.4,244.2,15.2,247 M17.1,252.8c-7.5,2.8-7.5,2.7-6.3,5.9c0.7,1.7,0.5,1.7,8.6-1.5
		c8.3-3.3,7.5-2.7,6.7-5.1C25.4,249.6,25.7,249.6,17.1,252.8 M19.5,258.4c-3.8,1.5-7,3.1-7,3.5c0,1.4,9.2,21.1,9.9,21.1
		c0.5,0,13.2-7,13.8-7.6c0.2-0.2-0.9-3.1-2.5-6.4c-1.6-3.3-3.7-7.6-4.5-9.7C27.4,254.9,28.1,255,19.5,258.4 M29.9,280.4
		c-3.8,2.1-7,4-7,4.2c0.1,2.2,1.6,2.3,4.7,0.4c1.8-1,5-2.9,7.2-4.2c3.5-2,3.9-2.4,3.4-3.4C37.5,276.1,37.8,275.9,29.9,280.4
		 M37.4,280.7c-0.9,0.5-4,2.4-7,4.1L25,288l1.2,2c2.8,4.8,11.6,17.6,12.1,17.6c0.5,0,13.1-9.3,13.1-9.6c0-0.1-1.4-2.1-3.1-4.5
		c-1.7-2.4-4.3-6.3-5.9-8.8C39.1,279.3,39.4,279.5,37.4,280.7 M45.5,304.1c-5.5,4.2-7,5.8-5.8,6.4c0.2,0.1,1.4,1.5,2.7,3.1l2.3,2.9
		l5.7-4.7c3.1-2.6,6-5,6.4-5.4c0.8-0.7-3.3-6.7-4.6-6.8C51.9,299.5,48.9,301.5,45.5,304.1 M52,311.8c-3.4,2.9-6.1,5.4-5.9,5.5
		c0.2,0.2,0.9-0.2,1.6-0.7c6.4-5.1,11.9-10.2,10.7-10C58.3,306.6,55.4,308.9,52,311.8 M53.6,313.2c-7,6-7,6-6.2,6
		c0.3,0,2.9-2,5.7-4.4c6.5-5.6,6.7-5.9,6.4-6.2C59.4,308.4,56.7,310.5,53.6,313.2 M54.5,315.1c-6.9,6.2-6.5,5.1-3.1,8.8
		c3.5,3.7,2.6,4,9.1-2.5c6.5-6.4,6.3-5.7,3-8.9C60.3,309.2,61.5,308.9,54.5,315.1 M73.8,332.7c-6.7,7.6-6.6,7-1.2,11.1
		c4.5,3.5,3.7,3.8,9.2-3.3c5.6-7.3,5.5-6.3,0.9-10C78.1,326.7,79.4,326.4,73.8,332.7 M90.4,334.8c0.2,0.3,1.5,1.4,2.9,2.4
		s2.5,1.6,2.3,1.3s-1.5-1.4-2.9-2.4C91.3,335.1,90.2,334.5,90.4,334.8 M85.8,337.4c-5.2,6.5-8.1,10.5-7.8,10.7
		c0.2,0.2,0.5,0.1,0.8-0.2c0.7-0.8,8.6-11.4,9-12.2C88.6,334.2,87.5,335.1,85.8,337.4 M84.2,342.6c-5,6.7-5,6.8-2.2,8.5l1.6,0.9
		l4.7-6.7l4.7-6.7l-1.5-1.2C89.3,335.6,89.4,335.6,84.2,342.6 M89.5,345.7c-4.3,6.1-5.3,7.9-4.3,7.3c0.8-0.5,9.6-13.5,9.1-13.5
		C94,339.4,91.9,342.2,89.5,345.7 M90.9,347.1c-5,7.3-5,6.9-1.3,9.2l2.7,1.6l2.6-4.2c1.4-2.3,3.4-5.5,4.4-7l1.9-2.8l-2.6-1.7
		c-1.4-0.9-2.7-1.7-2.8-1.7C95.6,340.5,93.4,343.5,90.9,347.1 M129,360.4c-5.7,13.5-5.6,12.9-4.6,13.8c1.3,1.2,17.2,6.9,17.7,6.3
		c0.3-0.4,4.8-15.5,4.6-15.6c-0.1-0.1-2.6-1-5.6-2c-3-1.1-6.8-2.5-8.4-3.1l-2.9-1.2L129,360.4 M145.7,372.8c-1.3,4.2-2.2,7.9-2,8.2
		c0.3,0.5,2.5,0.8,2.5,0.4c0-0.1,1-3.6,2.2-7.8c1.2-4.2,2.1-7.7,2-7.7C148.5,364.4,148,365.1,145.7,372.8 M151.1,368.5
		c-0.3,1.3-1.4,4.9-2.3,8c-0.9,3.1-1.6,5.7-1.5,5.8c1.8,1.6,13.3,2.8,13.4,1.4c0.1-1.2,2.2-12.3,2.7-13.8c0.2-0.7-0.8-1.1-5.1-2.1
		c-2.9-0.7-5.6-1.4-6-1.5C152,366.3,151.5,367.1,151.1,368.5 M164.3,372.4c-0.3,1.6-1,5.2-1.6,8l-1,5.1l1.4-0.2
		c2.4-0.3,5.2-15.8,2.9-15.8C165.1,369.6,164.8,370.2,164.3,372.4"/>
</g>
</svg>
