<?xml version="1.0" standalone="no"?>
<!DOCTYPE svg PUBLIC "-//W3C//DTD SVG 20010904//EN"
 "http://www.w3.org/TR/2001/REC-SVG-20010904/DTD/svg10.dtd">
<svg version="1.0" xmlns="http://www.w3.org/2000/svg"
 width="512.000000pt" height="512.000000pt" viewBox="0 0 512.000000 512.000000"
 preserveAspectRatio="xMidYMid meet">
<metadata>
Created by potrace 1.14, written by Peter Selinger 2001-2017
</metadata>
<g transform="translate(0.000000,512.000000) scale(0.100000,-0.100000)"
fill="#000000" stroke="none">
<path d="M1327 4339 c-726 -363 -1177 -594 -1175 -602 2 -7 537 -279 1188
-606 l1184 -594 1185 594 c652 327 1187 599 1189 606 4 14 -2346 1193 -2375
1192 -10 0 -548 -266 -1196 -590z"/>
<path d="M537 2744 c-239 -120 -387 -199 -384 -207 2 -7 537 -279 1188 -606
l1184 -594 1185 594 c651 327 1186 599 1188 606 3 12 -764 403 -792 403 -7 0
-365 -176 -796 -392 l-783 -392 -783 392 c-431 216 -792 392 -802 391 -9 0
-192 -88 -405 -195z"/>
<path d="M547 1548 c-219 -109 -397 -204 -395 -210 2 -6 537 -278 1189 -605
l1185 -595 1184 594 c652 326 1186 598 1188 605 4 13 -765 403 -793 403 -8 0
-367 -176 -797 -391 l-782 -392 -790 395 -791 396 -398 -200z"/>
</g>
</svg>
