<?xml version="1.0" encoding="UTF-8" standalone="no"?>
<!DOCTYPE svg PUBLIC "-//W3C//DTD SVG 1.1//EN" "http://www.w3.org/Graphics/SVG/1.1/DTD/svg11.dtd">
<svg xmlns="http://www.w3.org/2000/svg" xmlns:xl="http://www.w3.org/1999/xlink" version="1.1" viewBox="0 0 210 210" width="210pt" height="210pt" xmlns:dc="http://purl.org/dc/elements/1.1/">
  <metadata> Produced by OmniGraffle 7.0.2 
    <dc:date>2016-10-20 06:49:40 +0000</dc:date>
  </metadata>
  <defs/>
  <g stroke="none" stroke-opacity="1" stroke-dasharray="none" fill="none" fill-opacity="1">
    <title>Canvas 1</title>
    <g>
      <title>Layer 1</title>
      <path d="M 179.8891 41.09982 L 199.90254 41.129767 L 199.96255 52.928566 C 200.00256 59.41691 200.01256 64.74733 199.98255 64.76729 C 199.95255 64.79724 196.60197 64.76729 192.52128 64.69742 C 188.45058 64.627544 185.08 64.5976 185.05 64.627544 C 185.02 64.66747 184.02982 68.41075 182.85962 72.952585 C 168.22711 129.61078 159.84568 162.75123 158.88551 167.80215 L 158.66547 168.95009 L 140.48236 168.95009 C 123.47944 168.95009 122.29924 168.9401 122.17922 168.7804 C 122.10921 168.69056 118.5386 155.43438 114.22786 139.3333 C 109.92712 123.23224 106.12647 109.0078 105.78641 107.74008 C 105.44635 106.46237 105.1363 105.41426 105.1063 105.41426 C 105.06629 105.41426 105.01628 105.51408 104.99628 105.63386 C 104.96627 105.76363 104.19614 108.75825 103.28598 112.30188 C 101.58569 118.89004 97.41498 135.21072 91.96404 156.62224 C 90.27375 163.24035 88.86351 168.68057 88.83351 168.7205 C 88.7635 168.79038 64.98942 169 56.85803 169 L 52.157224 169 L 51.38709 166.08524 C 50.96702 164.47813 48.06652 153.48787 44.95599 141.65913 C 41.835455 129.83038 39.24501 119.90821 39.185 119.59877 C 39.13499 119.28932 35.86443 106.80176 31.923757 91.83865 L 24.752528 64.63753 L 17.371263 64.64751 L 10 64.66747 L 10 52.828745 L 10 41 L 13.62062 41.05989 C 15.610961 41.09982 27.04292 41.129767 39.024973 41.129767 L 60.808706 41.129767 L 60.808706 52.85869 L 60.808706 64.587616 L 53.87752 64.587616 C 46.64628 64.587616 45.106015 64.627544 45.106015 64.83717 C 45.106015 65.066755 51.067037 87.12712 57.34811 110.15574 C 61.48882 125.33845 62.438985 128.77228 62.498996 128.77228 C 62.61902 128.77228 67.83991 108.19925 76.17134 74.91905 C 78.61176 65.14661 80.65211 57.081104 80.69211 57.00125 C 80.74212 56.92139 81.67228 53.28792 82.77247 48.94572 L 84.76281 41.029946 L 92.41412 41.03993 C 96.62484 41.04991 101.88574 41.079857 104.11613 41.119785 L 108.16682 41.179677 L 110.32719 49.06551 C 111.5174 53.39772 112.7176 57.759885 112.99765 58.74811 C 113.46773 60.43508 116.85831 72.78289 126.26992 107.16112 C 131.04074 124.57982 132.32096 129.20151 132.37097 129.2614 C 132.40097 129.28137 132.44098 129.24144 132.46098 129.16158 C 132.68102 128.56266 147.40354 68.97972 148.18368 65.55588 C 148.2737 65.17656 148.3237 64.85713 148.3037 64.83717 C 148.25369 64.777275 144.37302 64.68744 137.93192 64.587616 C 134.78138 64.537706 132.18094 64.47781 132.15093 64.44787 C 132.12093 64.41792 132.06092 61.28355 132.02091 57.48039 C 131.9709 53.67722 131.90089 48.416673 131.86088 45.79139 L 131.79087 41.029946 L 145.83328 41.04991 C 153.5546 41.069874 168.87722 41.08984 179.8891 41.09982 Z" fill="black"/>
    </g>
  </g>
</svg>
