<?xml version="1.0" standalone="no"?>
<!DOCTYPE svg PUBLIC "-//W3C//DTD SVG 20010904//EN"
 "http://www.w3.org/TR/2001/REC-SVG-20010904/DTD/svg10.dtd">
<svg version="1.0" xmlns="http://www.w3.org/2000/svg"
 width="512.000000pt" height="512.000000pt" viewBox="0 0 512.000000 512.000000"
 preserveAspectRatio="xMidYMid meet">
<metadata>
Created by potrace 1.14, written by Peter Selinger 2001-2017
</metadata>
<g transform="translate(0.000000,512.000000) scale(0.100000,-0.100000)"
fill="#000000" stroke="none">
<path d="M300 4300 l0 -180 2260 0 2260 0 0 180 0 180 -2260 0 -2260 0 0 -180z"/>
<path d="M1000 3430 l0 -170 1560 0 1560 0 0 170 0 170 -1560 0 -1560 0 0
-170z"/>
<path d="M300 2560 l0 -170 2260 0 2260 0 0 170 0 170 -2260 0 -2260 0 0 -170z"/>
<path d="M1000 1690 l0 -170 1560 0 1560 0 0 170 0 170 -1560 0 -1560 0 0
-170z"/>
<path d="M300 820 l0 -180 2260 0 2260 0 0 180 0 180 -2260 0 -2260 0 0 -180z"/>
</g>
</svg>
