<?xml version="1.0" standalone="no"?>
<!DOCTYPE svg PUBLIC "-//W3C//DTD SVG 20010904//EN"
 "http://www.w3.org/TR/2001/REC-SVG-20010904/DTD/svg10.dtd">
<svg version="1.0" xmlns="http://www.w3.org/2000/svg"
 width="224.000000pt" height="224.000000pt" viewBox="0 0 224.000000 224.000000"
 preserveAspectRatio="xMidYMid meet">
<metadata>
Created by potrace 1.13, written by Peter Selinger 2001-2015
</metadata>
<g transform="translate(0.000000,224.000000) scale(0.100000,-0.100000)"
fill="#000000" stroke="none">
<path d="M1500 1931 c-51 -16 -55 -20 -61 -52 -3 -19 -13 -46 -22 -59 -24 -34
-22 -40 16 -40 21 0 41 -8 51 -19 23 -25 84 -35 132 -22 70 20 72 24 30 75
-32 39 -35 48 -25 67 10 19 7 25 -17 45 -34 27 -33 27 -104 5z"/>
<path d="M416 1680 c-44 -33 -83 -60 -87 -60 -5 0 -24 -14 -44 -31 l-36 -32
-29 28 c-21 20 -30 24 -30 14 0 -29 22 -134 45 -219 15 -54 25 -127 29 -200
12 -222 26 -307 68 -403 34 -78 38 -97 38 -168 0 -53 7 -106 21 -154 l22 -73
86 -22 c81 -20 90 -20 156 -6 38 8 71 13 74 11 2 -2 -12 -13 -30 -24 -41 -25
-41 -25 57 -5 88 18 154 48 295 135 93 57 98 59 166 59 l70 0 65 -78 c55 -65
67 -88 81 -144 10 -37 17 -74 17 -82 0 -9 -25 -60 -55 -113 -30 -54 -55 -101
-55 -105 0 -4 162 -7 360 -8 l360 0 0 46 c0 35 -9 61 -42 117 -23 40 -54 88
-70 107 -23 28 -28 44 -28 87 l0 53 -39 0 -38 0 -18 83 c-18 81 -42 147 -56
147 -3 0 -10 -19 -14 -43 -4 -23 -9 -35 -12 -27 -10 36 -68 150 -75 150 -4 0
-8 -9 -8 -20 0 -21 -24 -27 -35 -9 -4 6 -16 14 -27 18 -18 7 -15 11 26 35 25
15 46 32 46 38 0 12 -88 98 -100 98 -9 0 -20 -61 -20 -113 0 -32 -3 -38 -17
-34 -10 3 -35 8 -55 12 -21 3 -38 8 -38 10 0 3 13 26 30 53 42 68 47 119 17
156 -23 28 -24 28 -49 12 -18 -12 -31 -35 -43 -79 -23 -83 -68 -144 -114 -157
-58 -16 -59 -14 -35 45 6 14 -6 8 -39 -19 -63 -51 -121 -59 -184 -25 -42 23
-44 26 -39 59 3 19 9 45 12 57 5 20 1 22 -70 28 -70 7 -79 5 -111 -16 -19 -13
-35 -29 -35 -35 0 -7 11 -42 25 -78 30 -78 33 -131 9 -122 -64 25 -64 25 -64
-61 l0 -79 -44 -43 c-26 -25 -49 -40 -56 -36 -6 4 -20 -1 -31 -11 -18 -16 -21
-16 -59 1 -47 21 -49 33 -15 83 29 42 27 44 -57 62 l-58 11 0 62 c0 34 9 106
20 160 11 55 20 111 20 126 0 23 8 31 50 51 28 13 50 29 50 37 0 17 -2 17 64
-12 78 -34 106 -33 131 8 l20 32 3 -47 c3 -48 11 -55 46 -42 9 3 16 17 16 30
0 13 9 28 19 34 11 5 28 24 39 42 22 35 40 128 26 128 -5 0 -38 -5 -74 -10
-52 -9 -70 -16 -90 -39 -25 -29 -100 -53 -100 -31 0 5 3 10 8 10 4 1 21 12 37
26 33 28 35 27 -36 8 -11 -3 -24 7 -39 31 -21 34 -21 37 -5 61 16 24 15 27 -1
45 -16 17 -16 26 -5 90 7 39 10 73 6 77 -4 4 -23 12 -43 19 -34 10 -35 12 -14
18 l23 8 -22 23 c-21 22 -21 25 -6 41 8 10 19 41 22 68 l7 50 -50 38 c-27 20
-51 37 -53 37 -2 0 -40 -27 -83 -60z"/>
<path d="M1163 1646 c-33 -18 -78 -46 -100 -63 -21 -17 -58 -40 -82 -53 l-44
-22 33 -21 c39 -24 99 -36 196 -36 l71 -1 22 48 c14 30 21 62 19 86 l-3 38
-34 -46 c-34 -45 -36 -46 -88 -46 -29 0 -53 3 -53 8 0 4 26 25 56 47 97 69
102 112 7 61z"/>
<path d="M1580 1440 c0 -3 21 -46 46 -95 44 -86 45 -90 30 -116 -25 -43 -19
-96 20 -191 36 -87 54 -109 54 -65 0 12 8 67 17 123 l17 101 -28 58 c-24 48
-155 203 -156 185z"/>
<path d="M1270 1335 c-36 -25 -82 -50 -103 -56 -35 -9 -38 -13 -32 -36 3 -14
28 -53 55 -87 28 -33 50 -71 50 -83 0 -41 16 -24 30 30 7 28 23 75 35 103 20
45 44 174 33 174 -2 0 -33 -20 -68 -45z"/>
</g>
</svg>
