/* XPM */
static char * button_uf_xpm[] = {
"20 22 52 1",
" 	c None",
".	c #FBFBFB",
"+	c #FAFAFA",
"@	c #F7F7F7",
"#	c #F6F6F6",
"$	c #F5F5F5",
"%	c #F4F4F4",
"&	c #F2F2F2",
"*	c #F3F3F3",
"=	c #E9E9E9",
"-	c #D3D3D3",
";	c #C0C0C0",
">	c #B5B5B5",
",	c #E8E8E8",
"'	c #F1F1F1",
")	c #E0E0E0",
"!	c #BCBCBC",
"~	c #CECECE",
"{	c #DCDCDC",
"]	c #BBBBBB",
"^	c #EFEFEF",
"/	c #F0F0F0",
"(	c #E6E6E6",
"_	c #C5C5C5",
":	c #ECECEC",
"<	c #E5E5E5",
"[	c #BFBFBF",
"}	c #E4E4E4",
"|	c #EDEDED",
"1	c #EEEEEE",
"2	c #D4D4D4",
"3	c #EAEAEA",
"4	c #B7B7B7",
"5	c #DEDEDE",
"6	c #EBEBEB",
"7	c #B9B9B9",
"8	c #E2E2E2",
"9	c #C1C1C1",
"0	c #CCCCCC",
"a	c #CBCBCB",
"b	c #D7D7D7",
"c	c #CFCFCF",
"d	c #E3E3E3",
"e	c #DBDBDB",
"f	c #E7E7E7",
"g	c #BEBEBE",
"h	c #B1B1B1",
"i	c #E1E1E1",
"j	c #A7A7A7",
"k	c #A6A6A6",
"l	c #A8A8A8",
"m	c #A5A5A5",
"...........+.++.+...",
"@@@#@##@#@@@@@@@@@@@",
"####################",
"$$$$$$$$$$$$$$$$$$$$",
"%%%&%&*%*%%%%%%*%%%%",
"*&&*&*=-;>>;-,&*&***",
"&&&'&);!~{{~];)&&&&&",
"^//^(;_:#++#:_;<^//^",
"//^^~[}**&&**}[~/^^^",
"|/11[2(3:||:3(2[1||^",
"||::45<=3663=<54|:|:",
":66678,3::::3,87::::",
"66339{3:1^^1:3{9336=",
"=,=30a:1/**/1:a0=,==",
"==,,8;b/&***/b;8,==,",
"((((,{[cd^^dc;e,f(((",
"(<(}f,<cghhgc<,<<(}(",
"<}}}}}f:/*&'|,(}(<<8",
"ddd8dd8d((((}8dddddd",
"888i8d888di8d}88d88i",
",f(ffff(fffffffffff(",
"jjkjjljjjjmkjjljkjjj"};
