/* XPM */
static char * close_xpm[] = {
"20 22 179 2",
"  	c None",
". 	c #F1F1F1",
"+ 	c #F0F0F0",
"@ 	c #E5E5E5",
"# 	c #E6E6E6",
"$ 	c #E4E4E4",
"% 	c #E3E3E3",
"& 	c #E2E2E2",
"* 	c #E1E1E1",
"= 	c #E0E0E0",
"- 	c #DDDDDD",
"; 	c #DEDEDE",
"> 	c #DCDCDC",
", 	c #DFDFDF",
"' 	c #CBC4C2",
") 	c #A18485",
"! 	c #805454",
"~ 	c #693533",
"{ 	c #683533",
"] 	c #A08382",
"^ 	c #DBDBDB",
"/ 	c #DADADA",
"( 	c #BCADAE",
"_ 	c #855454",
": 	c #6B2723",
"< 	c #883A35",
"[ 	c #A6514D",
"} 	c #A5504D",
"| 	c #873935",
"1 	c #6A2623",
"2 	c #845252",
"3 	c #BBACAD",
"4 	c #D9D9D9",
"5 	c #D7D7D7",
"6 	c #D5D5D5",
"7 	c #C6BFBD",
"8 	c #845052",
"9 	c #772925",
"0 	c #DC6F69",
"a 	c #F5B1AA",
"b 	c #FCEDE5",
"c 	c #FCECE5",
"d 	c #DB6E68",
"e 	c #772824",
"f 	c #865153",
"g 	c #D8D8D8",
"h 	c #D6D6D6",
"i 	c #A07E80",
"j 	c #792522",
"k 	c #CD514A",
"l 	c #F18D86",
"m 	c #F28F88",
"n 	c #F18C84",
"o 	c #CD504A",
"p 	c #A17F81",
"q 	c #D3D3D3",
"r 	c #D4D4D4",
"s 	c #8F514F",
"t 	c #A5302B",
"u 	c #E44E45",
"v 	c #EE625B",
"w 	c #EF7069",
"x 	c #F07871",
"y 	c #A42F2B",
"z 	c #8F4F50",
"A 	c #D2D2D2",
"B 	c #D1D1D1",
"C 	c #CFCFCF",
"D 	c #D0D0D0",
"E 	c #8C3433",
"F 	c #CA3B32",
"G 	c #ED473A",
"H 	c #EE4E45",
"I 	c #EE5950",
"J 	c #EE6059",
"K 	c #EE4F46",
"L 	c #ED473B",
"M 	c #C93A31",
"N 	c #8C3633",
"O 	c #CDCDCD",
"P 	c #943936",
"Q 	c #D8453C",
"R 	c #EE4E46",
"S 	c #EE584F",
"T 	c #EE615A",
"U 	c #EF6862",
"V 	c #EF6A63",
"W 	c #EE5A51",
"X 	c #EE5047",
"Y 	c #D8463D",
"Z 	c #943B37",
"` 	c #CECECE",
" .	c #CCCCCC",
"..	c #CACACA",
"+.	c #A05A58",
"@.	c #CA4B46",
"#.	c #EE5D57",
"$.	c #EF6E65",
"%.	c #F07F78",
"&.	c #F18D87",
"*.	c #F18E88",
"=.	c #F0807B",
"-.	c #EF6F69",
";.	c #EE5F59",
">.	c #CA4F48",
",.	c #9C5958",
"'.	c #C9C9C9",
").	c #C8C8C8",
"!.	c #C6C6C6",
"~.	c #C7C7C7",
"{.	c #AA8585",
"].	c #B2514D",
"^.	c #EF736E",
"/.	c #F0827D",
"(.	c #F39D98",
"_.	c #F4AFAB",
":.	c #F5B0AC",
"<.	c #F39D99",
"[.	c #F18481",
"}.	c #F07671",
"|.	c #B2524F",
"1.	c #CBCBCB",
"2.	c #C5C5C5",
"3.	c #C4BCBA",
"4.	c #A76D6B",
"5.	c #BF6B68",
"6.	c #F09895",
"7.	c #F4ADAA",
"8.	c #F6BCBA",
"9.	c #F6BDBB",
"0.	c #F4AFAC",
"a.	c #F09C98",
"b.	c #BF6F6B",
"c.	c #C2BAB8",
"d.	c #C4C4C4",
"e.	c #C1C1C1",
"f.	c #C2C2C2",
"g.	c #BFBFBF",
"h.	c #C0AFAF",
"i.	c #AC7776",
"j.	c #B47471",
"k.	c #CE9895",
"l.	c #E2B0AF",
"m.	c #E2B1AF",
"n.	c #CE9897",
"o.	c #B47572",
"p.	c #AC7774",
"q.	c #BFAFAF",
"r.	c #BEBEBE",
"s.	c #C0C0C0",
"t.	c #BBBBBB",
"u.	c #CCC4C2",
"v.	c #BE9E9B",
"w.	c #AE7B7A",
"x.	c #A36764",
"y.	c #BDBDBD",
"z.	c #BABABA",
"A.	c #BCBCBC",
"B.	c #B8B8B8",
"C.	c #B6B6B6",
"D.	c #B9B9B9",
"E.	c #C3C3C3",
"F.	c #B4B4B4",
"G.	c #B7B7B7",
"H.	c #B5B5B5",
"I.	c #B3B3B3",
"J.	c #BBBABB",
"K.	c #BDBCBD",
"L.	c #BFBEBF",
"M.	c #B9B8B9",
"N.	c #B8B7B8",
"O.	c #BEBDBE",
"P.	c #BAB9BA",
"Q.	c #BCBBBC",
"R.	c #6B6B6B",
"S.	c #6A6A6A",
"T.	c #6C6C6C",
"U.	c #696969",
"V.	c #686868",
". . . . . . . + . . . . . . . . . . . . ",
"@ @ @ @ # @ @ $ # # @ @ @ @ @ $ $ % % @ ",
"% % & % $ & & % % % & % % % & & $ % $ $ ",
"$ & * * & * * % * & * * & = = * * * * & ",
"- ; > , ; , - ; , - , ; - - , , - , , , ",
"- - > - > > ' ) ! ~ { ! ] ' ^ ^ ^ - > - ",
"> > / ^ > ( _ : < [ } | 1 2 3 ^ > 4 4 / ",
"5 5 5 6 7 8 9 0 a b c a d e f 7 g 6 6 5 ",
"h 6 h h i j k l m n n m l o j p 6 6 h 6 ",
"q q r q s t u v w x x w v u y z r q A r ",
"B A C D E F G H I J J I K L M N D D B C ",
"C O D C P Q R S T U V v W X Y Z `  .` D ",
".. ... .+.@.#.$.%.&.*.=.-.;.>.,.'. ...'.",
").!.!.~.{.].^./.(._.:.<.[.}.|.{.1.).~.!.",
"2.~.~.).3.4.5.6.7.8.9.0.a.b.4.c.!.d.~.~.",
"e.f.f.g.!.h.i.j.k.l.m.n.o.p.q.~.f.r.f.e.",
"f.g.s.t.g.).u.v.w.x.x.w.v.u.).y.g.s.s.f.",
"y.g.r.z.r.t.!.q - * = ^ r d.g.r.A.y.z.r.",
"B.C.C.A.B.D.z.t.s.E.d.r.r.F.D.B.t.G.G.t.",
"H.I.H.H.I.D.G.G.B.G.G.H.G.H.H.G.B.z.H.G.",
"J.J.K.L.J.M.N.O.P.L.P.O.O.N.M.J.K.Q.K.P.",
"R.S.S.S.T.T.S.U.U.S.S.S.S.S.S.V.U.S.S.V."};
