/* XPM */
static char * iconify_xpm[] = {
"20 22 184 2",
"  	c None",
". 	c #F1F1F1",
"+ 	c #F0F0F0",
"@ 	c #F2F2F2",
"# 	c #E5E5E5",
"$ 	c #E4E4E4",
"% 	c #E6E6E6",
"& 	c #E7E7E7",
"* 	c #E3E3E3",
"= 	c #E2E2E2",
"- 	c #E1E1E1",
"; 	c #E0E0E0",
"> 	c #DEDEDE",
", 	c #DDDDDD",
"' 	c #DFDFDF",
") 	c #DCDCDC",
"! 	c #DBDBDB",
"~ 	c #C7C8C4",
"{ 	c #919C89",
"] 	c #697A5B",
"^ 	c #4A603D",
"/ 	c #4A5F3B",
"( 	c #687A5B",
"_ 	c #909B88",
": 	c #C8C9C5",
"< 	c #DADADA",
"[ 	c #B3B7AE",
"} 	c #697A5C",
"| 	c #3F5D2D",
"1 	c #557C40",
"2 	c #6F9856",
"3 	c #6E9754",
"4 	c #537A3D",
"5 	c #3E5C2C",
"6 	c #697B5C",
"7 	c #B4B8AF",
"8 	c #D9D9D9",
"9 	c #D7D7D7",
"0 	c #D6D6D6",
"a 	c #D5D5D5",
"b 	c #C0C3BE",
"c 	c #677959",
"d 	c #43672F",
"e 	c #9EC67E",
"f 	c #E3EFC6",
"g 	c #F8FBF5",
"h 	c #E1EFC3",
"i 	c #9AC579",
"j 	c #41662E",
"k 	c #687A5A",
"l 	c #C2C5C0",
"m 	c #D3D3D3",
"n 	c #D4D4D4",
"o 	c #909A86",
"p 	c #42662D",
"q 	c #7FB15D",
"r 	c #C5E5A2",
"s 	c #C7EAA6",
"t 	c #BFE6A0",
"u 	c #7FB15C",
"v 	c #8E9884",
"w 	c #D2D2D2",
"x 	c #6B805D",
"y 	c #588C3E",
"z 	c #8ABF65",
"A 	c #9DCE79",
"B 	c #A9D688",
"C 	c #AFDB8D",
"D 	c #A9D685",
"E 	c #9CCD79",
"F 	c #89BF65",
"G 	c #598D3E",
"H 	c #CFCFCF",
"I 	c #D1D1D1",
"J 	c #5B7644",
"K 	c #72AC51",
"L 	c #8BC865",
"M 	c #97CF71",
"N 	c #9FD478",
"O 	c #A4D67E",
"P 	c #9FD378",
"Q 	c #96CE70",
"R 	c #8BC764",
"S 	c #72AB53",
"T 	c #5C7745",
"U 	c #CDCDCD",
"V 	c #D0D0D0",
"W 	c #CECECE",
"X 	c #637E48",
"Y 	c #81B85E",
"Z 	c #97D16F",
"` 	c #A3D97A",
" .	c #ABDC81",
"..	c #B2DF88",
"+.	c #B1DE87",
"@.	c #A2D87A",
"#.	c #96D16F",
"$.	c #617E48",
"%.	c #CCCCCC",
"&.	c #C8C8C8",
"*.	c #CBCBCB",
"=.	c #778E65",
"-.	c #7FAC5D",
";.	c #9FD476",
">.	c #B0DF83",
",.	c #BDE492",
"'.	c #C7E79E",
").	c #AEDE83",
"!.	c #9ED476",
"~.	c #7FAD5D",
"{.	c #778D65",
"].	c #CACACA",
"^.	c #C9C9C9",
"/.	c #C5C5C5",
"(.	c #96A18A",
"_.	c #779A58",
":.	c #A6D27B",
"<.	c #BAE08D",
"[.	c #CCE9A1",
"}.	c #D6EEB1",
"|.	c #CBE9A1",
"1.	c #B9E08C",
"2.	c #A5D17A",
"3.	c #779957",
"4.	c #95A088",
"5.	c #C7C7C7",
"6.	c #C4C4C4",
"7.	c #C3C3C3",
"8.	c #BBBDB7",
"9.	c #849870",
"0.	c #89A966",
"a.	c #B9D98E",
"b.	c #CEE6A5",
"c.	c #D8EDB4",
"d.	c #CDE6A5",
"e.	c #B8D98D",
"f.	c #88A865",
"g.	c #839670",
"h.	c #BCBEB8",
"i.	c #C2C2C2",
"j.	c #BDBDBD",
"k.	c #B5BBAE",
"l.	c #899C74",
"m.	c #89A165",
"n.	c #A8BC84",
"o.	c #BED29B",
"p.	c #A7BC84",
"q.	c #87A065",
"r.	c #8A9D75",
"s.	c #B3B9AC",
"t.	c #C6C6C6",
"u.	c #C0C0C0",
"v.	c #BFBFBF",
"w.	c #BEBEBE",
"x.	c #C1C1C1",
"y.	c #BCBCBC",
"z.	c #C7C9C3",
"A.	c #A8B29A",
"B.	c #8DA177",
"C.	c #7E9262",
"D.	c #7E9261",
"E.	c #8D9F76",
"F.	c #A9B39B",
"G.	c #C5C7C1",
"H.	c #BABABA",
"I.	c #BBBBBB",
"J.	c #B9B9B9",
"K.	c #B8B8B8",
"L.	c #B7B7B7",
"M.	c #B4B4B4",
"N.	c #B6B6B6",
"O.	c #B3B3B3",
"P.	c #BBBABB",
"Q.	c #B8B7B8",
"R.	c #BEBDBE",
"S.	c #BAB9BA",
"T.	c #BCBBBC",
"U.	c #BDBCBD",
"V.	c #B9B8B9",
"W.	c #6A6A6A",
"X.	c #696969",
"Y.	c #686868",
"Z.	c #676767",
"`.	c #6B6B6B",
". . . . . . + . . . . . . @ @ . @ . . . ",
"# # $ # $ $ # % & % # # # # # # % $ # # ",
"* * * # $ $ $ * $ * * * = * = $ $ = $ * ",
"- * - - = ; - - = * - = * * = - = ; = = ",
"> ; , > , > , > > > ' ) , ' ' > , ' > ' ",
", ' , , , ! ~ { ] ^ / ( _ : > , , ) , ) ",
"< ! ) ) ! [ } | 1 2 3 4 5 6 7 ! ) ! 8 < ",
"9 0 0 a b c d e f g g h i j k l 0 0 9 a ",
"a m 0 n o p q r s t t s r u p v a a m 0 ",
"w m m n x y z A B C C D E F G x m n m m ",
"H I I H J K L M N O O P Q R S T I H U V ",
"W I W U X Y Z `  ...+. .@.#.Y $.W %.U W ",
"&.&.*.%.=.-.;.>.,.'.'.,.).!.~.{.W &.*.].",
"&.^./.^.(._.:.<.[.}.}.|.1.2.3.4.^.&.5.*.",
"6.7.6.5.8.9.0.a.b.c.c.d.e.f.g.h././.5.5.",
"7.7.i.j.6.k.l.m.n.o.o.p.q.r.s.t.7.i.u.u.",
"v.w.x.j.y.].z.A.B.C.D.E.F.G.].v.v.x.x.u.",
"j.y.H.u.H.w.t.n ! ; - < I 6.y.w.w.I.I.w.",
"J.K.K.L.L.H.I.y.v.x.6.x.H.H.y.L.K.M.H.I.",
"J.H.J.J.J.N.M.N.L.L.J.J.O.M.N.K.O.M.J.J.",
"P.P.P.Q.P.P.R.S.T.U.P.P.S.S.T.V.T.R.R.T.",
"W.W.X.Y.W.X.Z.W.W.Y.X.W.Y.Y.W.W.W.X.Y.`."};
