/* XPM */
static char * window_uf_xpm[] = {
"12 22 29 1",
" 	c None",
".	c #FBFBFB",
"+	c #FAFAFA",
"@	c #F7F7F7",
"#	c #F6F6F6",
"$	c #F5F5F5",
"%	c #F4F4F4",
"&	c #F3F3F3",
"*	c #F2F2F2",
"=	c #F1F1F1",
"-	c #F0F0F0",
";	c #EFEFEF",
">	c #EEEEEE",
",	c #EDEDED",
"'	c #ECECEC",
")	c #EBEBEB",
"!	c #E9E9E9",
"~	c #EAEAEA",
"{	c #E8E8E8",
"]	c #E7E7E7",
"^	c #E6E6E6",
"/	c #E5E5E5",
"(	c #E4E4E4",
"_	c #E3E3E3",
":	c #E2E2E2",
"<	c #E1E1E1",
"[	c #A7A7A7",
"}	c #A6A6A6",
"|	c #A8A8A8",
"..........+.",
"@@#@##@@@@@@",
"############",
"$$$$$$$$$$$$",
"%%&&&&%&%$%%",
"****&&&&&&*&",
"******==****",
"--;;-;--==-=",
";-;-;>>;;;->",
";;>;>>;,;;>;",
",',,'',',,,'",
"')))'))'''''",
"!~)~~!!!{!~!",
"!!!!~~~!!~!!",
"{{{]{{{!{{{{",
"]]]{]]^^]]]]",
"^^^^///(//(/",
"_(((((_(((^(",
"__(_:_:_:__:",
"::<::_:::::<",
"]^]]^]]]]^]]",
"[}[}[[[|}[[}"};
