<?xml version="1.0" encoding="UTF-8" standalone="no"?>
<!DOCTYPE svg PUBLIC "-//W3C//DTD SVG 1.1//EN" "http://www.w3.org/Graphics/SVG/1.1/DTD/svg11.dtd">
<svg xmlns="http://www.w3.org/2000/svg" xmlns:xl="http://www.w3.org/1999/xlink" version="1.1" viewBox="0 0 150 150" width="150pt" height="150pt" xmlns:dc="http://purl.org/dc/elements/1.1/">
  <metadata> Produced by OmniGraffle 7.0.2 
    <dc:date>2016-10-22 08:14:59 +0000</dc:date>
  </metadata>
  <defs/>
  <g stroke="none" stroke-opacity="1" stroke-dasharray="none" fill="none" fill-opacity="1">
    <title>Canvas 1</title>
    <g>
      <title>Layer 1</title>
      <path d="M 147.52645 67.55733 C 142.38325 64.419444 135.56552 64.0429 129.82427 65.80011 C 129.10661 59.27332 125.03989 53.62513 120.25552 49.60864 L 118.34177 47.97694 L 116.66724 49.985185 C 113.43778 53.87616 112.48091 60.402955 112.95935 65.42357 C 113.31817 69.06351 114.39466 72.82897 116.54763 75.84134 C 114.8731 76.84546 113.07896 78.22613 111.40442 78.8537 C 108.05536 80.10886 104.34747 81.36401 100.75919 81.36401 L 92.74537 81.36401 L 94.01297 85.50601 L 75.35391 84.75292 L 72.48329 86.51014 L 55.020316 85.25498 L 20.812033 92.03281 L 29.352405 81.23849 L 11.889435 81.99159 L 13.803189 81.23849 L .40694067 81.23849 L .16772196 83.12122 C -.43032483 91.1542 .52655 98.93615 3.7560027 106.34155 L 5.0717056 109.10289 L 5.191315 109.35392 C 14.640454 126.17297 31.146546 133.20183 49.20756 133.20183 C 84.13349 133.20183 112.95935 116.75932 126.11638 82.24262 C 134.96747 82.74468 144.05778 79.98334 148.36372 71.071755 L 149.4402 68.81248 L 147.52645 67.55733 Z M 37.796565 87.26323 L 45.212347 87.76529 L 49.039847 83.49777 L 41.624065 85.50601 Z M 47.41342 106.59258 C 47.41342 108.72634 45.73889 110.48356 43.70553 110.48356 C 41.67217 110.48356 39.99764 108.72634 39.99764 106.59258 C 39.99764 104.45882 41.67217 102.70161 43.70553 102.70161 C 45.73889 102.82712 47.41342 104.45882 47.41342 106.59258 Z M 32.294533 86.00808 L 47.604534 85.75705 L 43.70553 81.23849 L 31.744592 81.23849 Z M 18.898282 81.23849 L 31.09844 81.23849 L 29.352405 81.23849 L 16.195376 81.23849 Z M 49.32717 130.44049 C 30.42889 130.31497 20.262094 123.66266 11.889439 114.8766 C 14.401236 115.00211 16.793423 115.12762 18.946391 115.12762 C 20.86014 115.12762 22.77389 115.12762 24.56803 115.00211 C 29.232796 114.75108 33.299514 114.1235 36.648576 113.11938 C 39.39959 119.77169 44.423184 125.92194 53.393886 130.44049 L 49.32717 130.44049 Z M 59.254745 81.23849 L 46.097715 81.23849 L 47.365316 83.24674 L 60.04391 85.75705 Z M 59.087035 86.76117 L 50.47516 86.76117 L 51.192816 83.7488 L 55.498754 84.25086 Z M 74.80396 81.23849 L 61.64693 81.23849 L 63.153754 89.5225 L 73.67938 83.99983 Z M 72.00485 83.7488 L 64.828285 88.01632 L 67.93813 85.25498 L 71.52641 84.50189 Z M 70.0911 85.50601 L 63.87141 83.7488 L 61.240004 85.25498 L 67.69891 86.00808 Z M 90.35318 81.23849 L 77.19615 81.23849 L 77.50688 85.50601 L 85.87954 84.25086 Z M 40.66719 99.3127 C 40.42797 99.18718 43.896643 94.29209 43.537815 94.29209 C 42.102503 94.29209 33.729846 97.55548 33.729846 99.06167 C 33.729846 100.56785 34.68672 108.3498 36.122034 108.3498 C 37.557346 108.3498 38.035784 106.34155 38.035784 104.83537 C 38.035784 104.45882 36.48086 104.58434 36.361252 104.33331 C 36.122034 104.70986 47.126097 96.80239 46.64766 96.80239 C 46.04961 96.80239 36.361252 98.68512 36.361252 98.05754 C 36.48086 97.55548 43.298597 98.18306 43.537815 98.05754 Z" fill="black"/>
    </g>
    <g>
      <title>Layer 2</title>
      <rect x="7.415782" y="81.19845" width="103.10329" height="14.592345" fill="black"/>
      <rect x="6.415782" y="61.54767" width="12.743333" height="12.743333" fill="black"/>
      <rect x="27.237713" y="61.54767" width="12.743333" height="12.743333" fill="#797979"/>
      <rect x="48.059644" y="61.54767" width="12.743333" height="12.743333" fill="black"/>
      <rect x="68.881576" y="61.54767" width="12.743333" height="12.743333" fill="#797979"/>
      <rect x="89.70351" y="61.54767" width="12.743333" height="12.743333" fill="black"/>
      <rect x="27.237713" y="40.973836" width="12.743333" height="12.743333" fill="black"/>
      <rect x="48.059644" y="40.973836" width="12.743333" height="12.743333" fill="#797979"/>
      <rect x="68.881576" y="40.973836" width="12.743333" height="12.743333" fill="black"/>
      <rect x="68.881576" y="20.4" width="12.743333" height="12.743333" fill="#797979"/>
    </g>
  </g>
</svg>
