/* XPM */
static char * maximize_xpm[] = {
"20 22 155 2",
"  	c None",
". 	c #F1F1F1",
"+ 	c #F0F0F0",
"@ 	c #E4E4E4",
"# 	c #E5E5E5",
"$ 	c #E3E3E3",
"% 	c #E6E6E6",
"& 	c #E2E2E2",
"* 	c #E1E1E1",
"= 	c #E0E0E0",
"- 	c #DFDFDF",
"; 	c #DDDDDD",
"> 	c #DCDCDC",
", 	c #DEDEDE",
"' 	c #CDC9C3",
") 	c #A59882",
"! 	c #88724E",
"~ 	c #72552D",
"{ 	c #87724D",
"] 	c #CCC8C2",
"^ 	c #DBDBDB",
"/ 	c #DADADA",
"( 	c #D8D8D8",
"_ 	c #BCB5A9",
": 	c #8A734C",
"< 	c #784918",
"[ 	c #976229",
"} 	c #B67F42",
"| 	c #97622A",
"1 	c #D4D4D4",
"2 	c #D9D9D9",
"3 	c #D5D5D5",
"4 	c #C9C5BF",
"5 	c #8C744A",
"6 	c #8A4F17",
"7 	c #E2B162",
"8 	c #F7EBAD",
"9 	c #FDFAED",
"0 	c #FDFAEE",
"a 	c #F8EAAE",
"b 	c #E2B262",
"c 	c #C7C3BD",
"d 	c #D7D7D7",
"e 	c #D6D6D6",
"f 	c #D3D3D3",
"g 	c #A4957D",
"h 	c #8B5117",
"i 	c #DA9840",
"j 	c #F5D98B",
"k 	c #F7DD93",
"l 	c #F6D98E",
"m 	c #F5D98C",
"n 	c #A5967E",
"o 	c #D1D1D1",
"p 	c #947A4B",
"q 	c #B76E22",
"r 	c #E8A347",
"s 	c #F1B963",
"t 	c #F4C472",
"u 	c #F6CB7B",
"v 	c #F4C673",
"w 	c #F1BA64",
"x 	c #D0D0D0",
"y 	c #CFCFCF",
"z 	c #907133",
"A 	c #D18B32",
"B 	c #EFAB47",
"C 	c #F5B958",
"D 	c #F7C264",
"E 	c #F9C66D",
"F 	c #CECECE",
"G 	c #CDCDCD",
"H 	c #957837",
"I 	c #D79C3F",
"J 	c #F3BB55",
"K 	c #FAC966",
"L 	c #FBCF6F",
"M 	c #FBD476",
"N 	c #F3BB57",
"O 	c #CACACA",
"P 	c #C9C9C9",
"Q 	c #CCCCCC",
"R 	c #A08954",
"S 	c #C89A48",
"T 	c #F5C562",
"U 	c #FBD373",
"V 	c #FDDD80",
"W 	c #FDE28D",
"X 	c #FBD573",
"Y 	c #F5C661",
"Z 	c #C99C47",
"` 	c #A18A55",
" .	c #CBCBCB",
"..	c #C8C8C8",
"+.	c #AB9F81",
"@.	c #B39343",
"#.	c #EEC965",
"$.	c #FCDC77",
"%.	c #FDE48E",
"&.	c #FEEB9E",
"*.	c #FEE58D",
"=.	c #EECA64",
"-.	c #ACA082",
";.	c #C6C6C6",
">.	c #C7C7C7",
",.	c #C4C4C4",
"'.	c #C3C0B8",
").	c #A79461",
"!.	c #C1A84E",
"~.	c #F0D774",
"{.	c #F9E38B",
"].	c #FCEA9B",
"^.	c #A69361",
"/.	c #C1BEB6",
"(.	c #C0C0C0",
"_.	c #C1C1C1",
":.	c #C2C2C2",
"<.	c #BFB9AC",
"[.	c #AC9968",
"}.	c #B7A14D",
"|.	c #D0BE63",
"1.	c #E4D47B",
"2.	c #BEBAAA",
"3.	c #BDBDBD",
"4.	c #BFBFBF",
"5.	c #CCC9C1",
"6.	c #BBB190",
"7.	c #AE9D67",
"8.	c #A5914A",
"9.	c #BBB191",
"0.	c #CBC8C0",
"a.	c #BEBEBE",
"b.	c #BCBCBC",
"c.	c #D2D2D2",
"d.	c #B8B8B8",
"e.	c #BABABA",
"f.	c #B7B7B7",
"g.	c #B9B9B9",
"h.	c #C3C3C3",
"i.	c #B6B6B6",
"j.	c #B5B5B5",
"k.	c #B4B4B4",
"l.	c #BBBBBB",
"m.	c #BDBCBD",
"n.	c #BCBBBC",
"o.	c #B9B8B9",
"p.	c #BFBEBF",
"q.	c #BBBABB",
"r.	c #BAB9BA",
"s.	c #BEBDBE",
"t.	c #6A6A6A",
"u.	c #686868",
"v.	c #696969",
"w.	c #6C6C6C",
"x.	c #676767",
". . . . . . . + . . + . + . . . . . . . ",
"@ # # $ % $ $ @ # # @ % # % # # # # @ $ ",
"& # @ @ # $ & $ @ @ $ @ $ & @ @ $ @ @ @ ",
"* & & * & * & $ * * & * & = = * * = & & ",
"= - ; > , > , , ; ; ; - , , - > - , ; , ",
"> > > ; > ; ' ) ! ~ ~ { ) ] > ; > > ^ ; ",
"/ / ^ ( / _ : < [ } } | < : _ ^ > / ^ ^ ",
"1 2 ( 3 4 5 6 7 8 9 0 a b 6 5 c 1 d ( 3 ",
"e e f 3 g h i j k l l k m i h n 3 e 3 e ",
"f e o 1 p q r s t u u v w r q p f f f f ",
"x o y x z A B C D E E D C B A z x F x x ",
"x G G G H I J K L M M L K N I H F F x y ",
"O O P Q R S T U V W W V X Y Z ` O O  .O ",
"....O  .+.@.#.$.%.&.&.*.$.=.@.-.P ;.P >.",
">...,.>.'.).!.~.{.].].{.~.!.^./.>.>.>.,.",
"(._._.:.;.<.[.}.|.1.1.|.}.[.2.;.:.(._._.",
"_.3.4.3.(.>.5.6.7.8.8.7.9.0...4.4.(.3.4.",
"a.b.b.3.3.a.;.o ^ * = > c.,.4.3.4.4.(.d.",
"e.e.d.f.g.g.f.b.(.,.h._.4.i.g.d.e.e.g.e.",
"d.f.f.j.f.e.d.f.f.g.k.i.d.l.f.f.g.i.d.j.",
"m.n.o.n.m.p.q.r.p.s.n.q.n.r.q.q.q.n.m.o.",
"t.t.u.v.t.w.t.t.t.v.x.u.w.t.w.t.u.t.v.v."};
