/* XPM */
static char * window_xpm[] = {
"6 22 56 1",
" 	c None",
".	c #F1F1F1",
"+	c #E6E6E6",
"@	c #E5E5E5",
"#	c #E4E4E4",
"$	c #E2E2E2",
"%	c #E3E3E3",
"&	c #E0E0E0",
"*	c #DDDDDD",
"=	c #DEDEDE",
"-	c #DFDFDF",
";	c #DCDCDC",
">	c #DBDBDB",
",	c #DADADA",
"'	c #D8D8D8",
")	c #D7D7D7",
"!	c #D9D9D9",
"~	c #D6D6D6",
"{	c #D5D5D5",
"]	c #D4D4D4",
"^	c #D2D2D2",
"/	c #D3D3D3",
"(	c #CDCDCD",
"_	c #CECECE",
":	c #D0D0D0",
"<	c #D1D1D1",
"[	c #CCCCCC",
"}	c #CFCFCF",
"|	c #C9C9C9",
"1	c #C7C7C7",
"2	c #CACACA",
"3	c #C8C8C8",
"4	c #C6C6C6",
"5	c #C4C4C4",
"6	c #C5C5C5",
"7	c #C3C3C3",
"8	c #C2C2C2",
"9	c #C0C0C0",
"0	c #BFBFBF",
"a	c #C1C1C1",
"b	c #BEBEBE",
"c	c #BDBDBD",
"d	c #BABABA",
"e	c #BBBBBB",
"f	c #B7B7B7",
"g	c #B4B4B4",
"h	c #B9B9B9",
"i	c #B5B5B5",
"j	c #B6B6B6",
"k	c #BAB9BA",
"l	c #B8B7B8",
"m	c #BCBBBC",
"n	c #BBBABB",
"o	c #6A6A6A",
"p	c #686868",
"q	c #6C6C6C",
"......",
"+@@@#@",
"$##%%%",
"$$$%$&",
"*=-=*=",
"*;>*;;",
";;,>,'",
")')!)~",
"{{)]~~",
"^^/]{]",
"(_:<:_",
":(([}(",
"|12232",
"343311",
"445676",
"89504a",
"790b0c",
"9dcecb",
"dedfdf",
"fghifj",
"klmnmk",
"oooopq"};
