/* XPM */
static char * panel_xpm[] = {
"30 30 2 1",
"       c #2D2D2D",
".      c #D64937",
"                              ",
"                              ",
"                              ",
"                              ",
"                              ",
"                              ",
"                              ",
"                              ",
"                              ",
"                              ",
"                              ",
"                              ",
"                              ",
"                              ",
"                              ",
"                              ",
"                              ",
"                              ",
"                              ",
"                              ",
"                              ",
"                              ",
"                              ",
"                              ",
"                              ",
"                              ",
"                              ",
"..............................",
"..............................",
"..............................",
"                              "};
