<?xml version="1.0" encoding="UTF-8" standalone="no"?>
<!DOCTYPE svg PUBLIC "-//W3C//DTD SVG 1.1//EN" "http://www.w3.org/Graphics/SVG/1.1/DTD/svg11.dtd">
<svg xmlns="http://www.w3.org/2000/svg" xmlns:xl="http://www.w3.org/1999/xlink" version="1.1" viewBox="0 0 800 800" width="800pt" height="800pt" xmlns:dc="http://purl.org/dc/elements/1.1/">
  <metadata> Produced by OmniGraffle 7.0.2 
    <dc:date>2016-10-23 00:25:45 +0000</dc:date>
  </metadata>
  <defs/>
  <g stroke="none" stroke-opacity="1" stroke-dasharray="none" fill="none" fill-opacity="1">
    <title>Canvas 1</title>
    <g>
      <title>Layer 1</title>
      <path d="M 83.60332 345.29085 L 226.4188 345.29085 C 243.31184 345.29085 257.02213 351.3923 257.02213 358.91013 C 257.02213 366.42797 243.31184 372.5294 226.4188 372.5294 L 83.60332 372.5294 C 66.71029 372.5294 53 366.42797 53 358.91013 C 53 351.3923 66.71029 345.29085 83.60332 345.29085" fill="black"/>
      <path d="M 83.60332 345.29085 L 226.4188 345.29085 C 243.31184 345.29085 257.02213 351.3923 257.02213 358.91013 C 257.02213 366.42797 243.31184 372.5294 226.4188 372.5294 L 83.60332 372.5294 C 66.71029 372.5294 53 366.42797 53 358.91013 C 53 351.3923 66.71029 345.29085 83.60332 345.29085" stroke="black" stroke-linecap="round" stroke-linejoin="round" stroke-width="1"/>
      <path d="M 331.6033 269.52723 L 474.4188 269.52723 C 491.31184 269.52723 505.0221 275.62867 505.0221 283.1465 C 505.0221 290.66435 491.31184 296.7658 474.4188 296.7658 L 331.6033 296.7658 C 314.7103 296.7658 301 290.66435 301 283.1465 C 301 275.62867 314.7103 269.52723 331.6033 269.52723" fill="#797979"/>
      <path d="M 331.6033 269.52723 L 474.4188 269.52723 C 491.31184 269.52723 505.0221 275.62867 505.0221 283.1465 C 505.0221 290.66435 491.31184 296.7658 474.4188 296.7658 L 331.6033 296.7658 C 314.7103 296.7658 301 290.66435 301 283.1465 C 301 275.62867 314.7103 269.52723 331.6033 269.52723" stroke="#aaa" stroke-linecap="round" stroke-linejoin="round" stroke-width="1"/>
      <path d="M 331.6033 193.76362 L 474.4188 193.76362 C 491.31184 193.76362 505.0221 199.86505 505.0221 207.3829 C 505.0221 214.90074 491.31184 221.00217 474.4188 221.00217 L 331.6033 221.00217 C 314.7103 221.00217 301 214.90074 301 207.3829 C 301 199.86505 314.7103 193.76362 331.6033 193.76362" fill="#797979"/>
      <path d="M 331.6033 193.76362 L 474.4188 193.76362 C 491.31184 193.76362 505.0221 199.86505 505.0221 207.3829 C 505.0221 214.90074 491.31184 221.00217 474.4188 221.00217 L 331.6033 221.00217 C 314.7103 221.00217 301 214.90074 301 207.3829 C 301 199.86505 314.7103 193.76362 331.6033 193.76362" stroke="#aaa" stroke-linecap="round" stroke-linejoin="round" stroke-width="1"/>
      <path d="M 83.60332 421.05447 L 226.4188 421.05447 C 243.31184 421.05447 257.02213 427.1559 257.02213 434.67374 C 257.02213 442.1916 243.31184 448.293 226.4188 448.293 L 83.60332 448.293 C 66.71029 448.293 53 442.1916 53 434.67374 C 53 427.1559 66.71029 421.05447 83.60332 421.05447" fill="black"/>
      <path d="M 83.60332 421.05447 L 226.4188 421.05447 C 243.31184 421.05447 257.02213 427.1559 257.02213 434.67374 C 257.02213 442.1916 243.31184 448.293 226.4188 448.293 L 83.60332 448.293 C 66.71029 448.293 53 442.1916 53 434.67374 C 53 427.1559 66.71029 421.05447 83.60332 421.05447" stroke="black" stroke-linecap="round" stroke-linejoin="round" stroke-width="1"/>
      <path d="M 331.6033 421.05447 L 474.4188 421.05447 C 491.31184 421.05447 505.0221 427.1559 505.0221 434.67374 C 505.0221 442.1916 491.31184 448.293 474.4188 448.293 L 331.6033 448.293 C 314.7103 448.293 301 442.1916 301 434.67374 C 301 427.1559 314.7103 421.05447 331.6033 421.05447" fill="#797979"/>
      <path d="M 331.6033 421.05447 L 474.4188 421.05447 C 491.31184 421.05447 505.0221 427.1559 505.0221 434.67374 C 505.0221 442.1916 491.31184 448.293 474.4188 448.293 L 331.6033 448.293 C 314.7103 448.293 301 442.1916 301 434.67374 C 301 427.1559 314.7103 421.05447 331.6033 421.05447" stroke="#aaa" stroke-linecap="round" stroke-linejoin="round" stroke-width="1"/>
      <path d="M 331.6033 345.29085 L 474.4188 345.29085 C 491.31184 345.29085 505.0221 351.3923 505.0221 358.91013 C 505.0221 366.42797 491.31184 372.5294 474.4188 372.5294 L 331.6033 372.5294 C 314.7103 372.5294 301 366.42797 301 358.91013 C 301 351.3923 314.7103 345.29085 331.6033 345.29085" fill="#797979"/>
      <path d="M 331.6033 345.29085 L 474.4188 345.29085 C 491.31184 345.29085 505.0221 351.3923 505.0221 358.91013 C 505.0221 366.42797 491.31184 372.5294 474.4188 372.5294 L 331.6033 372.5294 C 314.7103 372.5294 301 366.42797 301 358.91013 C 301 351.3923 314.7103 345.29085 331.6033 345.29085" stroke="#aaa" stroke-linecap="round" stroke-linejoin="round" stroke-width="1"/>
      <path d="M 331.6033 118 L 474.4188 118 C 491.31184 118 505.0221 124.10144 505.0221 131.61928 C 505.0221 139.13712 491.31184 145.23856 474.4188 145.23856 L 331.6033 145.23856 C 314.7103 145.23856 301 139.13712 301 131.61928 C 301 124.10144 314.7103 118 331.6033 118" fill="#797979"/>
      <path d="M 331.6033 118 L 474.4188 118 C 491.31184 118 505.0221 124.10144 505.0221 131.61928 C 505.0221 139.13712 491.31184 145.23856 474.4188 145.23856 L 331.6033 145.23856 C 314.7103 145.23856 301 139.13712 301 131.61928 C 301 124.10144 314.7103 118 331.6033 118" stroke="#aaa" stroke-linecap="round" stroke-linejoin="round" stroke-width="1"/>
      <path d="M 83.60332 118 L 226.4188 118 C 243.31184 118 257.02213 124.10144 257.02213 131.61928 C 257.02213 139.13712 243.31184 145.23856 226.4188 145.23856 L 83.60332 145.23856 C 66.71029 145.23856 53 139.13712 53 131.61928 C 53 124.10144 66.71029 118 83.60332 118" fill="black"/>
      <path d="M 83.60332 118 L 226.4188 118 C 243.31184 118 257.02213 124.10144 257.02213 131.61928 C 257.02213 139.13712 243.31184 145.23856 226.4188 145.23856 L 83.60332 145.23856 C 66.71029 145.23856 53 139.13712 53 131.61928 C 53 124.10144 66.71029 118 83.60332 118" stroke="black" stroke-linecap="round" stroke-linejoin="round" stroke-width="1"/>
      <path d="M 83.60332 193.76362 L 226.4188 193.76362 C 243.31184 193.76362 257.02213 199.86505 257.02213 207.3829 C 257.02213 214.90074 243.31184 221.00217 226.4188 221.00217 L 83.60332 221.00217 C 66.71029 221.00217 53 214.90074 53 207.3829 C 53 199.86505 66.71029 193.76362 83.60332 193.76362" fill="black"/>
      <path d="M 83.60332 193.76362 L 226.4188 193.76362 C 243.31184 193.76362 257.02213 199.86505 257.02213 207.3829 C 257.02213 214.90074 243.31184 221.00217 226.4188 221.00217 L 83.60332 221.00217 C 66.71029 221.00217 53 214.90074 53 207.3829 C 53 199.86505 66.71029 193.76362 83.60332 193.76362" stroke="black" stroke-linecap="round" stroke-linejoin="round" stroke-width="1"/>
      <path d="M 83.60332 269.52723 L 226.4188 269.52723 C 243.31184 269.52723 257.02213 275.62867 257.02213 283.1465 C 257.02213 290.66435 243.31184 296.7658 226.4188 296.7658 L 83.60332 296.7658 C 66.71029 296.7658 53 290.66435 53 283.1465 C 53 275.62867 66.71029 269.52723 83.60332 269.52723" fill="black"/>
      <path d="M 83.60332 269.52723 L 226.4188 269.52723 C 243.31184 269.52723 257.02213 275.62867 257.02213 283.1465 C 257.02213 290.66435 243.31184 296.7658 226.4188 296.7658 L 83.60332 296.7658 C 66.71029 296.7658 53 290.66435 53 283.1465 C 53 275.62867 66.71029 269.52723 83.60332 269.52723" stroke="black" stroke-linecap="round" stroke-linejoin="round" stroke-width="1"/>
    </g>
    <g>
      <title>Layer 2</title>
      <path d="M 261.03273 13.649398 C 260.8803 13.800404 257.90816 14.17792 254.47875 14.40443 C 250.97313 14.706442 247.54372 15.083958 246.85784 15.159461 C 244.19052 15.687984 239.31314 16.443016 236.72203 16.745028 C 226.3576 18.028582 205.01905 23.540315 190.15828 28.750035 C 161.96092 38.64095 132.77284 54.798634 111.35809 72.31537 C 100.68881 81.07374 96.87836 84.47139 87.80948 93.60727 C 58.31656 123.12902 36.901808 157.63397 23.4128 197.19764 C 20.288227 206.48453 15.487054 224.15228 14.648754 229.664 C 14.343918 231.32508 14.039082 233.21266 13.810454 233.81669 C 13.658036 234.4207 13.3532 236.2328 13.124573 237.74285 C 12.210064 243.7831 11.829018 246.3502 11.524182 248.0868 C 10.457255 254.42905 10 264.6975 10 282.51624 C 10 300.7125 10.228627 306.67726 11.524182 317.1722 C 11.829018 320.11683 11.981436 320.87186 13.3532 328.9507 C 13.962872 332.27284 16.020518 342.23926 17.620909 349.33656 C 18.535418 353.56474 23.26038 368.43886 25.77528 375.38516 C 39.645335 412.68373 60.22179 444.6216 88.8764 473.1618 C 125.91402 510.08284 172.02052 535.2254 223.0044 546.3244 C 226.96727 547.1549 231.4636 548.06094 232.91158 548.28745 C 234.35955 548.51396 237.48412 549.0425 239.7704 549.42 C 242.05667 549.7975 245.86712 550.32604 248.1534 550.55255 C 250.43967 550.85456 253.1832 551.1566 254.25012 551.3076 C 267.66292 553.27066 301.49976 552.81764 316.0557 550.55255 C 317.1226 550.32604 319.18026 550.024 320.62824 549.873 C 337.54665 547.6079 366.3537 540.3596 376.5657 535.8294 C 377.404 535.4519 380.8334 534.09285 384.1866 532.8093 C 392.95066 529.48716 411.9267 520.12476 420.38593 515.06605 C 428.00684 510.53586 443.32487 500.49393 444.01075 499.6634 C 444.2394 499.3614 445.916 498.00233 447.6688 496.6433 L 451.022 494.07616 L 483.7157 526.467 C 501.701 544.2858 516.4094 559.0844 516.4094 559.4619 C 516.4094 559.76394 515.6473 560.821 514.809 561.727 C 513.8945 562.63306 512.1417 565.5777 510.8461 568.2958 C 508.71226 572.5995 508.48363 573.9585 508.48363 579.6213 C 508.55984 586.7186 510.31265 592.6078 513.74206 596.6095 C 514.809 597.81754 558.2482 641.0809 610.299 692.6495 L 704.9507 786.5 L 711.9619 786.5 L 718.8969 786.5 L 754.4866 751.3155 L 790 716.131 L 790 712.2049 L 790 708.3542 L 692.29995 611.6346 C 605.6502 525.9385 594.06644 514.76404 590.4846 513.254 C 582.6351 510.00734 575.1666 509.7053 568.07914 512.42344 C 564.04006 513.9335 559.0865 516.9536 559.0865 517.85967 C 559.0865 520.2758 552.7611 514.5375 524.3351 486.37484 L 491.94626 454.286 L 494.8422 450.66183 C 496.4426 448.69875 497.9668 446.9622 498.1954 446.73567 C 498.9575 446.05614 509.0933 431.484 513.361 424.83974 C 518.3908 416.9874 530.43185 393.5059 533.86126 384.82306 C 541.4822 365.72075 548.03615 342.61678 550.3224 327.0631 C 550.55105 325.32655 550.8559 323.28796 551.0083 322.53293 C 551.2369 321.09837 551.8466 316.49267 552.6087 310.0749 C 554.2853 296.0313 554.2853 265.226 552.6087 255.7126 C 552.4563 254.65556 552.0752 251.78644 551.8466 249.29484 C 551.618 246.80323 551.2369 244.23612 551.0845 243.6321 C 550.9321 243.02807 550.62726 240.83848 550.3224 238.7999 C 549.78896 234.2697 546.6644 220.37712 544.60674 212.6758 C 543.69223 209.58016 542.85393 206.40903 542.7015 205.5785 C 541.8632 202.10535 536.5286 187.30672 533.02296 179.15238 C 514.8852 136.04006 487.4499 100.40256 449.3454 70.35229 C 419.4714 46.719793 380.22374 28.221512 342.2716 19.84066 C 334.34587 18.028582 332.212 17.651067 326.49634 16.745028 C 325.12457 16.518519 323.14314 16.216506 322.0762 15.989996 C 321.0093 15.83899 318.11334 15.461474 315.59844 15.159461 C 313.08354 14.932952 310.34 14.479933 309.5017 14.328926 C 307.6727 13.875907 261.49 13.196379 261.03273 13.649398 Z M 304.54812 70.956315 C 305.61505 71.182825 308.35857 71.56034 310.64485 71.86235 C 355.76063 77.37409 400.8002 99.57202 433.6463 132.3404 C 443.93454 142.68434 448.88813 148.49809 459.405 162.8437 C 462.52956 167.22288 470.2267 180.13392 473.6561 186.8537 C 479.21935 197.72616 487.52614 219.16907 488.7455 225.43583 C 488.8979 226.49288 489.20274 227.54992 489.35515 227.77643 C 489.7362 228.38046 492.70835 241.5935 493.2418 245.14216 C 493.47044 246.57672 493.7753 248.6153 494.0039 249.67235 C 497.4333 267.94413 497.1285 301.69405 493.2418 320.34334 C 493.0894 321.24937 492.70835 323.13695 492.4797 324.496 C 490.8031 334.53793 486.383 349.18555 481.1246 362.1721 C 470.6839 388.0697 454.98486 411.7777 435.0181 431.93704 C 410.8598 456.32457 382.12897 474.1433 349.13043 485.0913 C 342.57645 487.2809 328.554 490.98053 323.90523 491.73557 C 322.6859 491.8866 321.0093 492.1886 320.09477 492.4151 C 319.18026 492.6416 317.1226 492.9436 315.52223 493.1701 C 313.92184 493.47214 311.788 493.77415 310.87347 493.92516 C 304.4719 494.9822 295.1744 495.4352 281.6854 495.4352 C 267.96776 495.4352 253.1832 494.6802 251.88764 493.84965 C 251.659 493.77415 249.7538 493.39664 247.69614 493.1701 C 245.6385 492.8681 241.5994 492.1131 238.62726 491.50906 C 235.73131 490.90503 232.07328 490.0745 230.6253 489.7725 C 218.35564 487.2054 201.51343 481.0141 186.043 473.5393 C 151.90132 456.9286 122.48461 430.88 100.68881 397.7341 C 84.38007 373.04456 71.95799 339.52114 68.60479 311.20745 C 68.37616 309.09336 67.8427 305.3937 67.53786 302.9021 C 66.85198 298.0699 67.080606 262.6589 67.76649 259.48777 C 67.995115 258.43072 68.60479 254.73107 69.06204 251.18242 C 69.5193 247.63377 70.433806 242.72606 70.96727 240.23446 C 71.57694 237.74285 72.186615 234.87373 72.33903 233.81669 C 73.17733 229.2865 79.19785 210.1842 81.2555 205.503 C 81.63654 204.67246 82.85589 201.80333 83.99902 199.08522 C 96.72594 168.12891 121.11285 136.8706 149.38642 114.97467 C 161.42745 105.68778 170.42013 100.02504 185.96678 92.17271 C 202.58036 83.71635 226.51001 75.939525 244.724 73.070404 C 251.88764 71.93786 254.32633 71.56034 259.66097 71.03182 C 262.3283 70.80531 264.69077 70.42779 264.8432 70.27679 C 265.30044 69.82377 302.26185 70.5033 304.54812 70.956315 Z" fill="black"/>
      <path d="M 261.03273 13.649398 C 260.8803 13.800404 257.90816 14.17792 254.47875 14.40443 C 250.97313 14.706442 247.54372 15.083958 246.85784 15.159461 C 244.19052 15.687984 239.31314 16.443016 236.72203 16.745028 C 226.3576 18.028582 205.01905 23.540315 190.15828 28.750035 C 161.96092 38.64095 132.77284 54.798634 111.35809 72.31537 C 100.68881 81.07374 96.87836 84.47139 87.80948 93.60727 C 58.31656 123.12902 36.901808 157.63397 23.4128 197.19764 C 20.288227 206.48453 15.487054 224.15228 14.648754 229.664 C 14.343918 231.32508 14.039082 233.21266 13.810454 233.81669 C 13.658036 234.4207 13.3532 236.2328 13.124573 237.74285 C 12.210064 243.7831 11.829018 246.3502 11.524182 248.0868 C 10.457255 254.42905 10 264.6975 10 282.51624 C 10 300.7125 10.228627 306.67726 11.524182 317.1722 C 11.829018 320.11683 11.981436 320.87186 13.3532 328.9507 C 13.962872 332.27284 16.020518 342.23926 17.620909 349.33656 C 18.535418 353.56474 23.26038 368.43886 25.77528 375.38516 C 39.645335 412.68373 60.22179 444.6216 88.8764 473.1618 C 125.91402 510.08284 172.02052 535.2254 223.0044 546.3244 C 226.96727 547.1549 231.4636 548.06094 232.91158 548.28745 C 234.35955 548.51396 237.48412 549.0425 239.7704 549.42 C 242.05667 549.7975 245.86712 550.32604 248.1534 550.55255 C 250.43967 550.85456 253.1832 551.1566 254.25012 551.3076 C 267.66292 553.27066 301.49976 552.81764 316.0557 550.55255 C 317.1226 550.32604 319.18026 550.024 320.62824 549.873 C 337.54665 547.6079 366.3537 540.3596 376.5657 535.8294 C 377.404 535.4519 380.8334 534.09285 384.1866 532.8093 C 392.95066 529.48716 411.9267 520.12476 420.38593 515.06605 C 428.00684 510.53586 443.32487 500.49393 444.01075 499.6634 C 444.2394 499.3614 445.916 498.00233 447.6688 496.6433 L 451.022 494.07616 L 483.7157 526.467 C 501.701 544.2858 516.4094 559.0844 516.4094 559.4619 C 516.4094 559.76394 515.6473 560.821 514.809 561.727 C 513.8945 562.63306 512.1417 565.5777 510.8461 568.2958 C 508.71226 572.5995 508.48363 573.9585 508.48363 579.6213 C 508.55984 586.7186 510.31265 592.6078 513.74206 596.6095 C 514.809 597.81754 558.2482 641.0809 610.299 692.6495 L 704.9507 786.5 L 711.9619 786.5 L 718.8969 786.5 L 754.4866 751.3155 L 790 716.131 L 790 712.2049 L 790 708.3542 L 692.29995 611.6346 C 605.6502 525.9385 594.06644 514.76404 590.4846 513.254 C 582.6351 510.00734 575.1666 509.7053 568.07914 512.42344 C 564.04006 513.9335 559.0865 516.9536 559.0865 517.85967 C 559.0865 520.2758 552.7611 514.5375 524.3351 486.37484 L 491.94626 454.286 L 494.8422 450.66183 C 496.4426 448.69875 497.9668 446.9622 498.1954 446.73567 C 498.9575 446.05614 509.0933 431.484 513.361 424.83974 C 518.3908 416.9874 530.43185 393.5059 533.86126 384.82306 C 541.4822 365.72075 548.03615 342.61678 550.3224 327.0631 C 550.55105 325.32655 550.8559 323.28796 551.0083 322.53293 C 551.2369 321.09837 551.8466 316.49267 552.6087 310.0749 C 554.2853 296.0313 554.2853 265.226 552.6087 255.7126 C 552.4563 254.65556 552.0752 251.78644 551.8466 249.29484 C 551.618 246.80323 551.2369 244.23612 551.0845 243.6321 C 550.9321 243.02807 550.62726 240.83848 550.3224 238.7999 C 549.78896 234.2697 546.6644 220.37712 544.60674 212.6758 C 543.69223 209.58016 542.85393 206.40903 542.7015 205.5785 C 541.8632 202.10535 536.5286 187.30672 533.02296 179.15238 C 514.8852 136.04006 487.4499 100.40256 449.3454 70.35229 C 419.4714 46.719793 380.22374 28.221512 342.2716 19.84066 C 334.34587 18.028582 332.212 17.651067 326.49634 16.745028 C 325.12457 16.518519 323.14314 16.216506 322.0762 15.989996 C 321.0093 15.83899 318.11334 15.461474 315.59844 15.159461 C 313.08354 14.932952 310.34 14.479933 309.5017 14.328926 C 307.6727 13.875907 261.49 13.196379 261.03273 13.649398 Z M 304.54812 70.956315 C 305.61505 71.182825 308.35857 71.56034 310.64485 71.86235 C 355.76063 77.37409 400.8002 99.57202 433.6463 132.3404 C 443.93454 142.68434 448.88813 148.49809 459.405 162.8437 C 462.52956 167.22288 470.2267 180.13392 473.6561 186.8537 C 479.21935 197.72616 487.52614 219.16907 488.7455 225.43583 C 488.8979 226.49288 489.20274 227.54992 489.35515 227.77643 C 489.7362 228.38046 492.70835 241.5935 493.2418 245.14216 C 493.47044 246.57672 493.7753 248.6153 494.0039 249.67235 C 497.4333 267.94413 497.1285 301.69405 493.2418 320.34334 C 493.0894 321.24937 492.70835 323.13695 492.4797 324.496 C 490.8031 334.53793 486.383 349.18555 481.1246 362.1721 C 470.6839 388.0697 454.98486 411.7777 435.0181 431.93704 C 410.8598 456.32457 382.12897 474.1433 349.13043 485.0913 C 342.57645 487.2809 328.554 490.98053 323.90523 491.73557 C 322.6859 491.8866 321.0093 492.1886 320.09477 492.4151 C 319.18026 492.6416 317.1226 492.9436 315.52223 493.1701 C 313.92184 493.47214 311.788 493.77415 310.87347 493.92516 C 304.4719 494.9822 295.1744 495.4352 281.6854 495.4352 C 267.96776 495.4352 253.1832 494.6802 251.88764 493.84965 C 251.659 493.77415 249.7538 493.39664 247.69614 493.1701 C 245.6385 492.8681 241.5994 492.1131 238.62726 491.50906 C 235.73131 490.90503 232.07328 490.0745 230.6253 489.7725 C 218.35564 487.2054 201.51343 481.0141 186.043 473.5393 C 151.90132 456.9286 122.48461 430.88 100.68881 397.7341 C 84.38007 373.04456 71.95799 339.52114 68.60479 311.20745 C 68.37616 309.09336 67.8427 305.3937 67.53786 302.9021 C 66.85198 298.0699 67.080606 262.6589 67.76649 259.48777 C 67.995115 258.43072 68.60479 254.73107 69.06204 251.18242 C 69.5193 247.63377 70.433806 242.72606 70.96727 240.23446 C 71.57694 237.74285 72.186615 234.87373 72.33903 233.81669 C 73.17733 229.2865 79.19785 210.1842 81.2555 205.503 C 81.63654 204.67246 82.85589 201.80333 83.99902 199.08522 C 96.72594 168.12891 121.11285 136.8706 149.38642 114.97467 C 161.42745 105.68778 170.42013 100.02504 185.96678 92.17271 C 202.58036 83.71635 226.51001 75.939525 244.724 73.070404 C 251.88764 71.93786 254.32633 71.56034 259.66097 71.03182 C 262.3283 70.80531 264.69077 70.42779 264.8432 70.27679 C 265.30044 69.82377 302.26185 70.5033 304.54812 70.956315 Z" stroke="white" stroke-linecap="round" stroke-linejoin="round" stroke-width="20"/>
    </g>
  </g>
</svg>
